<svg height="60.36mm" viewBox="0 0 59.4 60.36" width="59.4mm" xmlns="http://www.w3.org/2000/svg"><path d="m2.4 2.4h54.6v.3h-54.6zm0 54.3h2.4v.3h-2.4zm26.4 0h28.2v.3h-28.2zm-26.4-54v54h.3v-54zm54.3 0v54h.3v-54z"/><text font-family="Arial" font-size="4.2" font-weight="bold" x="7.5" y="59.1">QR platba</text><path d="m7.5 7.5h1.2v1.2h-1.2zm1.2 0h1.2v1.2h-1.2zm1.2 0h1.2v1.2h-1.2zm1.2 0h1.2v1.2h-1.2zm1.2 0h1.2v1.2h-1.2zm1.2 0h1.2v1.2h-1.2zm1.2 0h1.2v1.2h-1.2zm3.6 0h1.2v1.2h-1.2zm3.6 0h1.2v1.2h-1.2zm1.2 0h1.2v1.2h-1.2zm1.2 0h1.2v1.2h-1.2zm2.4 0h1.2v1.2h-1.2zm1.2 0h1.2v1.2h-1.2zm9.6 0h1.2v1.2h-1.2zm2.4 0h1.2v1.2h-1.2zm1.2 0h1.2v1.2h-1.2zm2.4 0h1.2v1.2h-1.2zm1.2 0h1.2v1.2h-1.2zm1.2 0h1.2v1.2h-1.2zm1.2 0h1.2v1.2h-1.2zm1.2 0h1.2v1.2h-1.2zm1.2 0h1.2v1.2h-1.2zm1.2 0h1.2v1.2h-1.2zm-43.2 1.2h1.2v1.2h-1.2zm7.2 0h1.2v1.2h-1.2zm4.8 0h1.2v1.2h-1.2zm1.2 0h1.2v1.2h-1.2zm2.4 0h1.2v1.2h-1.2zm1.2 0h1.2v1.2h-1.2zm2.4 0h1.2v1.2h-1.2zm4.8 0h1.2v1.2h-1.2zm1.2 0h1.2v1.2h-1.2zm2.4 0h1.2v1.2h-1.2zm1.2 0h1.2v1.2h-1.2zm7.2 0h1.2v1.2h-1.2zm7.2 0h1.2v1.2h-1.2zm-43.2 1.2h1.2v1.2h-1.2zm2.4 0h1.2v1.2h-1.2zm1.2 0h1.2v1.2h-1.2zm1.2 0h1.2v1.2h-1.2zm2.4 0h1.2v1.2h-1.2zm2.4 0h1.2v1.2h-1.2zm2.4 0h1.2v1.2h-1.2zm6 0h1.2v1.2h-1.2zm2.4 0h1.2v1.2h-1.2zm4.8 0h1.2v1.2h-1.2zm1.2 0h1.2v1.2h-1.2zm1.2 0h1.2v1.2h-1.2zm2.4 0h1.2v1.2h-1.2zm2.4 0h1.2v1.2h-1.2zm3.6 0h1.2v1.2h-1.2zm2.4 0h1.2v1.2h-1.2zm1.2 0h1.2v1.2h-1.2zm1.2 0h1.2v1.2h-1.2zm2.4 0h1.2v1.2h-1.2zm-43.2 1.2h1.2v1.2h-1.2zm2.4 0h1.2v1.2h-1.2zm1.2 0h1.2v1.2h-1.2zm1.2 0h1.2v1.2h-1.2zm2.4 0h1.2v1.2h-1.2zm2.4 0h1.2v1.2h-1.2zm1.2 0h1.2v1.2h-1.2zm1.2 0h1.2v1.2h-1.2zm2.4 0h1.2v1.2h-1.2zm1.2 0h1.2v1.2h-1.2zm3.6 0h1.2v1.2h-1.2zm4.8 0h1.2v1.2h-1.2zm3.6 0h1.2v1.2h-1.2zm1.2 0h1.2v1.2h-1.2zm1.2 0h1.2v1.2h-1.2zm1.2 0h1.2v1.2h-1.2zm2.4 0h1.2v1.2h-1.2zm2.4 0h1.2v1.2h-1.2zm2.4 0h1.2v1.2h-1.2zm1.2 0h1.2v1.2h-1.2zm1.2 0h1.2v1.2h-1.2zm2.4 0h1.2v1.2h-1.2zm-43.2 1.2h1.2v1.2h-1.2zm2.4 0h1.2v1.2h-1.2zm1.2 0h1.2v1.2h-1.2zm1.2 0h1.2v1.2h-1.2zm2.4 0h1.2v1.2h-1.2zm2.4 0h1.2v1.2h-1.2zm1.2 0h1.2v1.2h-1.2zm1.2 0h1.2v1.2h-1.2zm2.4 0h1.2v1.2h-1.2zm1.2 0h1.2v1.2h-1.2zm1.2 0h1.2v1.2h-1.2zm3.6 0h1.2v1.2h-1.2zm2.4 0h1.2v1.2h-1.2zm1.2 0h1.2v1.2h-1.2zm1.2 0h1.2v1.2h-1.2zm2.4 0h1.2v1.2h-1.2zm3.6 0h1.2v1.2h-1.2zm1.2 0h1.2v1.2h-1.2zm1.2 0h1.2v1.2h-1.2zm2.4 0h1.2v1.2h-1.2zm2.4 0h1.2v1.2h-1.2zm1.2 0h1.2v1.2h-1.2zm1.2 0h1.2v1.2h-1.2zm2.4 0h1.2v1.2h-1.2zm-43.2 1.2h1.2v1.2h-1.2zm7.2 0h1.2v1.2h-1.2zm2.4 0h1.2v1.2h-1.2zm2.4 0h1.2v1.2h-1.2zm2.4 0h1.2v1.2h-1.2zm6 0h1.2v1.2h-1.2zm4.8 0h1.2v1.2h-1.2zm3.6 0h1.2v1.2h-1.2zm3.6 0h1.2v1.2h-1.2zm3.6 0h1.2v1.2h-1.2zm7.2 0h1.2v1.2h-1.2zm-43.2 1.2h1.2v1.2h-1.2zm1.2 0h1.2v1.2h-1.2zm1.2 0h1.2v1.2h-1.2zm1.2 0h1.2v1.2h-1.2zm1.2 0h1.2v1.2h-1.2zm1.2 0h1.2v1.2h-1.2zm1.2 0h1.2v1.2h-1.2zm2.4 0h1.2v1.2h-1.2zm2.4 0h1.2v1.2h-1.2zm2.4 0h1.2v1.2h-1.2zm2.4 0h1.2v1.2h-1.2zm2.4 0h1.2v1.2h-1.2zm2.4 0h1.2v1.2h-1.2zm2.4 0h1.2v1.2h-1.2zm2.4 0h1.2v1.2h-1.2zm2.4 0h1.2v1.2h-1.2zm2.4 0h1.2v1.2h-1.2zm2.4 0h1.2v1.2h-1.2zm2.4 0h1.2v1.2h-1.2zm1.2 0h1.2v1.2h-1.2zm1.2 0h1.2v1.2h-1.2zm1.2 0h1.2v1.2h-1.2zm1.2 0h1.2v1.2h-1.2zm1.2 0h1.2v1.2h-1.2zm1.2 0h1.2v1.2h-1.2zm-33.6 1.2h1.2v1.2h-1.2zm4.8 0h1.2v1.2h-1.2zm3.6 0h1.2v1.2h-1.2zm2.4 0h1.2v1.2h-1.2zm1.2 0h1.2v1.2h-1.2zm1.2 0h1.2v1.2h-1.2zm1.2 0h1.2v1.2h-1.2zm1.2 0h1.2v1.2h-1.2zm1.2 0h1.2v1.2h-1.2zm1.2 0h1.2v1.2h-1.2zm1.2 0h1.2v1.2h-1.2zm1.2 0h1.2v1.2h-1.2zm2.4 0h1.2v1.2h-1.2zm-32.4 1.2h1.2v1.2h-1.2zm2.4 0h1.2v1.2h-1.2zm1.2 0h1.2v1.2h-1.2zm1.2 0h1.2v1.2h-1.2zm1.2 0h1.2v1.2h-1.2zm1.2 0h1.2v1.2h-1.2zm3.6 0h1.2v1.2h-1.2zm1.2 0h1.2v1.2h-1.2zm1.2 0h1.2v1.2h-1.2zm1.2 0h1.2v1.2h-1.2zm1.2 0h1.2v1.2h-1.2zm2.4 0h1.2v1.2h-1.2zm1.2 0h1.2v1.2h-1.2zm3.6 0h1.2v1.2h-1.2zm2.4 0h1.2v1.2h-1.2zm2.4 0h1.2v1.2h-1.2zm3.6 0h1.2v1.2h-1.2zm1.2 0h1.2v1.2h-1.2zm3.6 0h1.2v1.2h-1.2zm1.2 0h1.2v1.2h-1.2zm1.2 0h1.2v1.2h-1.2zm1.2 0h1.2v1.2h-1.2zm1.2 0h1.2v1.2h-1.2zm-40.8 1.2h1.2v1.2h-1.2zm1.2 0h1.2v1.2h-1.2zm1.2 0h1.2v1.2h-1.2zm2.4 0h1.2v1.2h-1.2zm4.8 0h1.2v1.2h-1.2zm1.2 0h1.2v1.2h-1.2zm6 0h1.2v1.2h-1.2zm1.2 0h1.2v1.2h-1.2zm3.6 0h1.2v1.2h-1.2zm2.4 0h1.2v1.2h-1.2zm1.2 0h1.2v1.2h-1.2zm1.2 0h1.2v1.2h-1.2zm2.4 0h1.2v1.2h-1.2zm1.2 0h1.2v1.2h-1.2zm2.4 0h1.2v1.2h-1.2zm1.2 0h1.2v1.2h-1.2zm4.8 0h1.2v1.2h-1.2zm1.2 0h1.2v1.2h-1.2zm1.2 0h1.2v1.2h-1.2zm2.4 0h1.2v1.2h-1.2zm-43.2 1.2h1.2v1.2h-1.2zm2.4 0h1.2v1.2h-1.2zm1.2 0h1.2v1.2h-1.2zm1.2 0h1.2v1.2h-1.2zm1.2 0h1.2v1.2h-1.2zm1.2 0h1.2v1.2h-1.2zm6 0h1.2v1.2h-1.2zm4.8 0h1.2v1.2h-1.2zm1.2 0h1.2v1.2h-1.2zm2.4 0h1.2v1.2h-1.2zm1.2 0h1.2v1.2h-1.2zm2.4 0h1.2v1.2h-1.2zm4.8 0h1.2v1.2h-1.2zm6 0h1.2v1.2h-1.2zm4.8 0h1.2v1.2h-1.2zm1.2 0h1.2v1.2h-1.2zm1.2 0h1.2v1.2h-1.2zm-42 1.2h1.2v1.2h-1.2zm3.6 0h1.2v1.2h-1.2zm6 0h1.2v1.2h-1.2zm2.4 0h1.2v1.2h-1.2zm4.8 0h1.2v1.2h-1.2zm4.8 0h1.2v1.2h-1.2zm1.2 0h1.2v1.2h-1.2zm4.8 0h1.2v1.2h-1.2zm3.6 0h1.2v1.2h-1.2zm2.4 0h1.2v1.2h-1.2zm1.2 0h1.2v1.2h-1.2zm3.6 0h1.2v1.2h-1.2zm3.6 0h1.2v1.2h-1.2zm-43.2 1.2h1.2v1.2h-1.2zm3.6 0h1.2v1.2h-1.2zm1.2 0h1.2v1.2h-1.2zm2.4 0h1.2v1.2h-1.2zm1.2 0h1.2v1.2h-1.2zm2.4 0h1.2v1.2h-1.2zm1.2 0h1.2v1.2h-1.2zm3.6 0h1.2v1.2h-1.2zm1.2 0h1.2v1.2h-1.2zm1.2 0h1.2v1.2h-1.2zm1.2 0h1.2v1.2h-1.2zm3.6 0h1.2v1.2h-1.2zm2.4 0h1.2v1.2h-1.2zm1.2 0h1.2v1.2h-1.2zm2.4 0h1.2v1.2h-1.2zm4.8 0h1.2v1.2h-1.2zm1.2 0h1.2v1.2h-1.2zm1.2 0h1.2v1.2h-1.2zm7.2 0h1.2v1.2h-1.2zm-43.2 1.2h1.2v1.2h-1.2zm1.2 0h1.2v1.2h-1.2zm1.2 0h1.2v1.2h-1.2zm1.2 0h1.2v1.2h-1.2zm1.2 0h1.2v1.2h-1.2zm4.8 0h1.2v1.2h-1.2zm1.2 0h1.2v1.2h-1.2zm1.2 0h1.2v1.2h-1.2zm1.2 0h1.2v1.2h-1.2zm1.2 0h1.2v1.2h-1.2zm3.6 0h1.2v1.2h-1.2zm1.2 0h1.2v1.2h-1.2zm7.2 0h1.2v1.2h-1.2zm1.2 0h1.2v1.2h-1.2zm2.4 0h1.2v1.2h-1.2zm1.2 0h1.2v1.2h-1.2zm1.2 0h1.2v1.2h-1.2zm3.6 0h1.2v1.2h-1.2zm1.2 0h1.2v1.2h-1.2zm6 0h1.2v1.2h-1.2zm-42 1.2h1.2v1.2h-1.2zm1.2 0h1.2v1.2h-1.2zm1.2 0h1.2v1.2h-1.2zm2.4 0h1.2v1.2h-1.2zm1.2 0h1.2v1.2h-1.2zm3.6 0h1.2v1.2h-1.2zm1.2 0h1.2v1.2h-1.2zm2.4 0h1.2v1.2h-1.2zm1.2 0h1.2v1.2h-1.2zm6 0h1.2v1.2h-1.2zm2.4 0h1.2v1.2h-1.2zm2.4 0h1.2v1.2h-1.2zm2.4 0h1.2v1.2h-1.2zm2.4 0h1.2v1.2h-1.2zm1.2 0h1.2v1.2h-1.2zm6 0h1.2v1.2h-1.2zm1.2 0h1.2v1.2h-1.2zm2.4 0h1.2v1.2h-1.2zm-39.6 1.2h1.2v1.2h-1.2zm2.4 0h1.2v1.2h-1.2zm1.2 0h1.2v1.2h-1.2zm2.4 0h1.2v1.2h-1.2zm3.6 0h1.2v1.2h-1.2zm1.2 0h1.2v1.2h-1.2zm1.2 0h1.2v1.2h-1.2zm1.2 0h1.2v1.2h-1.2zm1.2 0h1.2v1.2h-1.2zm1.2 0h1.2v1.2h-1.2zm6 0h1.2v1.2h-1.2zm3.6 0h1.2v1.2h-1.2zm2.4 0h1.2v1.2h-1.2zm4.8 0h1.2v1.2h-1.2zm1.2 0h1.2v1.2h-1.2zm2.4 0h1.2v1.2h-1.2zm1.2 0h1.2v1.2h-1.2zm2.4 0h1.2v1.2h-1.2zm-42 1.2h1.2v1.2h-1.2zm1.2 0h1.2v1.2h-1.2zm1.2 0h1.2v1.2h-1.2zm2.4 0h1.2v1.2h-1.2zm1.2 0h1.2v1.2h-1.2zm1.2 0h1.2v1.2h-1.2zm1.2 0h1.2v1.2h-1.2zm1.2 0h1.2v1.2h-1.2zm1.2 0h1.2v1.2h-1.2zm1.2 0h1.2v1.2h-1.2zm2.4 0h1.2v1.2h-1.2zm2.4 0h1.2v1.2h-1.2zm1.2 0h1.2v1.2h-1.2zm3.6 0h1.2v1.2h-1.2zm2.4 0h1.2v1.2h-1.2zm1.2 0h1.2v1.2h-1.2zm1.2 0h1.2v1.2h-1.2zm2.4 0h1.2v1.2h-1.2zm2.4 0h1.2v1.2h-1.2zm3.6 0h1.2v1.2h-1.2zm1.2 0h1.2v1.2h-1.2zm1.2 0h1.2v1.2h-1.2zm2.4 0h1.2v1.2h-1.2zm1.2 0h1.2v1.2h-1.2zm1.2 0h1.2v1.2h-1.2zm-40.8 1.2h1.2v1.2h-1.2zm2.4 0h1.2v1.2h-1.2zm2.4 0h1.2v1.2h-1.2zm2.4 0h1.2v1.2h-1.2zm1.2 0h1.2v1.2h-1.2zm1.2 0h1.2v1.2h-1.2zm2.4 0h1.2v1.2h-1.2zm2.4 0h1.2v1.2h-1.2zm1.2 0h1.2v1.2h-1.2zm1.2 0h1.2v1.2h-1.2zm1.2 0h1.2v1.2h-1.2zm10.8 0h1.2v1.2h-1.2zm1.2 0h1.2v1.2h-1.2zm2.4 0h1.2v1.2h-1.2zm3.6 0h1.2v1.2h-1.2zm1.2 0h1.2v1.2h-1.2zm1.2 0h1.2v1.2h-1.2zm2.4 0h1.2v1.2h-1.2zm1.2 0h1.2v1.2h-1.2zm-40.8 1.2h1.2v1.2h-1.2zm1.2 0h1.2v1.2h-1.2zm3.6 0h1.2v1.2h-1.2zm1.2 0h1.2v1.2h-1.2zm1.2 0h1.2v1.2h-1.2zm1.2 0h1.2v1.2h-1.2zm1.2 0h1.2v1.2h-1.2zm9.6 0h1.2v1.2h-1.2zm2.4 0h1.2v1.2h-1.2zm2.4 0h1.2v1.2h-1.2zm1.2 0h1.2v1.2h-1.2zm1.2 0h1.2v1.2h-1.2zm1.2 0h1.2v1.2h-1.2zm1.2 0h1.2v1.2h-1.2zm4.8 0h1.2v1.2h-1.2zm1.2 0h1.2v1.2h-1.2zm2.4 0h1.2v1.2h-1.2zm2.4 0h1.2v1.2h-1.2zm1.2 0h1.2v1.2h-1.2zm-43.2 1.2h1.2v1.2h-1.2zm1.2 0h1.2v1.2h-1.2zm1.2 0h1.2v1.2h-1.2zm1.2 0h1.2v1.2h-1.2zm6 0h1.2v1.2h-1.2zm2.4 0h1.2v1.2h-1.2zm3.6 0h1.2v1.2h-1.2zm1.2 0h1.2v1.2h-1.2zm2.4 0h1.2v1.2h-1.2zm8.4 0h1.2v1.2h-1.2zm2.4 0h1.2v1.2h-1.2zm2.4 0h1.2v1.2h-1.2zm1.2 0h1.2v1.2h-1.2zm1.2 0h1.2v1.2h-1.2zm7.2 0h1.2v1.2h-1.2zm-42 1.2h1.2v1.2h-1.2zm6 0h1.2v1.2h-1.2zm1.2 0h1.2v1.2h-1.2zm1.2 0h1.2v1.2h-1.2zm2.4 0h1.2v1.2h-1.2zm3.6 0h1.2v1.2h-1.2zm2.4 0h1.2v1.2h-1.2zm7.2 0h1.2v1.2h-1.2zm2.4 0h1.2v1.2h-1.2zm1.2 0h1.2v1.2h-1.2zm3.6 0h1.2v1.2h-1.2zm2.4 0h1.2v1.2h-1.2zm1.2 0h1.2v1.2h-1.2zm1.2 0h1.2v1.2h-1.2zm2.4 0h1.2v1.2h-1.2zm1.2 0h1.2v1.2h-1.2zm3.6 0h1.2v1.2h-1.2zm-37.2 1.2h1.2v1.2h-1.2zm7.2 0h1.2v1.2h-1.2zm1.2 0h1.2v1.2h-1.2zm2.4 0h1.2v1.2h-1.2zm1.2 0h1.2v1.2h-1.2zm2.4 0h1.2v1.2h-1.2zm1.2 0h1.2v1.2h-1.2zm3.6 0h1.2v1.2h-1.2zm7.2 0h1.2v1.2h-1.2zm1.2 0h1.2v1.2h-1.2zm2.4 0h1.2v1.2h-1.2zm3.6 0h1.2v1.2h-1.2zm1.2 0h1.2v1.2h-1.2zm2.4 0h1.2v1.2h-1.2zm-42 1.2h1.2v1.2h-1.2zm1.2 0h1.2v1.2h-1.2zm1.2 0h1.2v1.2h-1.2zm1.2 0h1.2v1.2h-1.2zm1.2 0h1.2v1.2h-1.2zm1.2 0h1.2v1.2h-1.2zm2.4 0h1.2v1.2h-1.2zm4.8 0h1.2v1.2h-1.2zm2.4 0h1.2v1.2h-1.2zm3.6 0h1.2v1.2h-1.2zm4.8 0h1.2v1.2h-1.2zm3.6 0h1.2v1.2h-1.2zm3.6 0h1.2v1.2h-1.2zm1.2 0h1.2v1.2h-1.2zm2.4 0h1.2v1.2h-1.2zm3.6 0h1.2v1.2h-1.2zm1.2 0h1.2v1.2h-1.2zm1.2 0h1.2v1.2h-1.2zm-40.8 1.2h1.2v1.2h-1.2zm1.2 0h1.2v1.2h-1.2zm2.4 0h1.2v1.2h-1.2zm1.2 0h1.2v1.2h-1.2zm2.4 0h1.2v1.2h-1.2zm1.2 0h1.2v1.2h-1.2zm1.2 0h1.2v1.2h-1.2zm6 0h1.2v1.2h-1.2zm1.2 0h1.2v1.2h-1.2zm2.4 0h1.2v1.2h-1.2zm1.2 0h1.2v1.2h-1.2zm3.6 0h1.2v1.2h-1.2zm1.2 0h1.2v1.2h-1.2zm3.6 0h1.2v1.2h-1.2zm6 0h1.2v1.2h-1.2zm3.6 0h1.2v1.2h-1.2zm3.6 0h1.2v1.2h-1.2zm-42 1.2h1.2v1.2h-1.2zm1.2 0h1.2v1.2h-1.2zm1.2 0h1.2v1.2h-1.2zm1.2 0h1.2v1.2h-1.2zm2.4 0h1.2v1.2h-1.2zm1.2 0h1.2v1.2h-1.2zm1.2 0h1.2v1.2h-1.2zm3.6 0h1.2v1.2h-1.2zm1.2 0h1.2v1.2h-1.2zm3.6 0h1.2v1.2h-1.2zm1.2 0h1.2v1.2h-1.2zm6 0h1.2v1.2h-1.2zm2.4 0h1.2v1.2h-1.2zm1.2 0h1.2v1.2h-1.2zm2.4 0h1.2v1.2h-1.2zm1.2 0h1.2v1.2h-1.2zm6 0h1.2v1.2h-1.2zm2.4 0h1.2v1.2h-1.2zm-40.8 1.2h1.2v1.2h-1.2zm1.2 0h1.2v1.2h-1.2zm1.2 0h1.2v1.2h-1.2zm3.6 0h1.2v1.2h-1.2zm3.6 0h1.2v1.2h-1.2zm1.2 0h1.2v1.2h-1.2zm3.6 0h1.2v1.2h-1.2zm3.6 0h1.2v1.2h-1.2zm3.6 0h1.2v1.2h-1.2zm2.4 0h1.2v1.2h-1.2zm1.2 0h1.2v1.2h-1.2zm1.2 0h1.2v1.2h-1.2zm2.4 0h1.2v1.2h-1.2zm2.4 0h1.2v1.2h-1.2zm1.2 0h1.2v1.2h-1.2zm1.2 0h1.2v1.2h-1.2zm1.2 0h1.2v1.2h-1.2zm2.4 0h1.2v1.2h-1.2zm1.2 0h1.2v1.2h-1.2zm3.6 0h1.2v1.2h-1.2zm1.2 0h1.2v1.2h-1.2zm-43.2 1.2h1.2v1.2h-1.2zm3.6 0h1.2v1.2h-1.2zm3.6 0h1.2v1.2h-1.2zm1.2 0h1.2v1.2h-1.2zm1.2 0h1.2v1.2h-1.2zm1.2 0h1.2v1.2h-1.2zm2.4 0h1.2v1.2h-1.2zm2.4 0h1.2v1.2h-1.2zm2.4 0h1.2v1.2h-1.2zm1.2 0h1.2v1.2h-1.2zm1.2 0h1.2v1.2h-1.2zm1.2 0h1.2v1.2h-1.2zm1.2 0h1.2v1.2h-1.2zm2.4 0h1.2v1.2h-1.2zm1.2 0h1.2v1.2h-1.2zm2.4 0h1.2v1.2h-1.2zm3.6 0h1.2v1.2h-1.2zm1.2 0h1.2v1.2h-1.2zm2.4 0h1.2v1.2h-1.2zm1.2 0h1.2v1.2h-1.2zm4.8 0h1.2v1.2h-1.2zm1.2 0h1.2v1.2h-1.2zm-43.2 1.2h1.2v1.2h-1.2zm2.4 0h1.2v1.2h-1.2zm2.4 0h1.2v1.2h-1.2zm1.2 0h1.2v1.2h-1.2zm4.8 0h1.2v1.2h-1.2zm1.2 0h1.2v1.2h-1.2zm4.8 0h1.2v1.2h-1.2zm1.2 0h1.2v1.2h-1.2zm2.4 0h1.2v1.2h-1.2zm1.2 0h1.2v1.2h-1.2zm1.2 0h1.2v1.2h-1.2zm1.2 0h1.2v1.2h-1.2zm2.4 0h1.2v1.2h-1.2zm2.4 0h1.2v1.2h-1.2zm3.6 0h1.2v1.2h-1.2zm2.4 0h1.2v1.2h-1.2zm2.4 0h1.2v1.2h-1.2zm3.6 0h1.2v1.2h-1.2zm-40.8 1.2h1.2v1.2h-1.2zm6 0h1.2v1.2h-1.2zm1.2 0h1.2v1.2h-1.2zm1.2 0h1.2v1.2h-1.2zm3.6 0h1.2v1.2h-1.2zm3.6 0h1.2v1.2h-1.2zm2.4 0h1.2v1.2h-1.2zm4.8 0h1.2v1.2h-1.2zm1.2 0h1.2v1.2h-1.2zm1.2 0h1.2v1.2h-1.2zm2.4 0h1.2v1.2h-1.2zm1.2 0h1.2v1.2h-1.2zm4.8 0h1.2v1.2h-1.2zm1.2 0h1.2v1.2h-1.2zm1.2 0h1.2v1.2h-1.2zm1.2 0h1.2v1.2h-1.2zm1.2 0h1.2v1.2h-1.2zm3.6 0h1.2v1.2h-1.2zm-32.4 1.2h1.2v1.2h-1.2zm2.4 0h1.2v1.2h-1.2zm3.6 0h1.2v1.2h-1.2zm2.4 0h1.2v1.2h-1.2zm6 0h1.2v1.2h-1.2zm4.8 0h1.2v1.2h-1.2zm3.6 0h1.2v1.2h-1.2zm1.2 0h1.2v1.2h-1.2zm4.8 0h1.2v1.2h-1.2zm1.2 0h1.2v1.2h-1.2zm2.4 0h1.2v1.2h-1.2zm-42 1.2h1.2v1.2h-1.2zm1.2 0h1.2v1.2h-1.2zm1.2 0h1.2v1.2h-1.2zm1.2 0h1.2v1.2h-1.2zm1.2 0h1.2v1.2h-1.2zm1.2 0h1.2v1.2h-1.2zm1.2 0h1.2v1.2h-1.2zm4.8 0h1.2v1.2h-1.2zm1.2 0h1.2v1.2h-1.2zm1.2 0h1.2v1.2h-1.2zm1.2 0h1.2v1.2h-1.2zm1.2 0h1.2v1.2h-1.2zm1.2 0h1.2v1.2h-1.2zm1.2 0h1.2v1.2h-1.2zm2.4 0h1.2v1.2h-1.2zm1.2 0h1.2v1.2h-1.2zm3.6 0h1.2v1.2h-1.2zm2.4 0h1.2v1.2h-1.2zm3.6 0h1.2v1.2h-1.2zm1.2 0h1.2v1.2h-1.2zm2.4 0h1.2v1.2h-1.2zm2.4 0h1.2v1.2h-1.2zm3.6 0h1.2v1.2h-1.2zm1.2 0h1.2v1.2h-1.2zm-43.2 1.2h1.2v1.2h-1.2zm7.2 0h1.2v1.2h-1.2zm2.4 0h1.2v1.2h-1.2zm2.4 0h1.2v1.2h-1.2zm1.2 0h1.2v1.2h-1.2zm1.2 0h1.2v1.2h-1.2zm2.4 0h1.2v1.2h-1.2zm1.2 0h1.2v1.2h-1.2zm1.2 0h1.2v1.2h-1.2zm3.6 0h1.2v1.2h-1.2zm6 0h1.2v1.2h-1.2zm1.2 0h1.2v1.2h-1.2zm3.6 0h1.2v1.2h-1.2zm4.8 0h1.2v1.2h-1.2zm1.2 0h1.2v1.2h-1.2zm2.4 0h1.2v1.2h-1.2zm-42 1.2h1.2v1.2h-1.2zm2.4 0h1.2v1.2h-1.2zm1.2 0h1.2v1.2h-1.2zm1.2 0h1.2v1.2h-1.2zm2.4 0h1.2v1.2h-1.2zm2.4 0h1.2v1.2h-1.2zm1.2 0h1.2v1.2h-1.2zm6 0h1.2v1.2h-1.2zm4.8 0h1.2v1.2h-1.2zm2.4 0h1.2v1.2h-1.2zm1.2 0h1.2v1.2h-1.2zm1.2 0h1.2v1.2h-1.2zm4.8 0h1.2v1.2h-1.2zm1.2 0h1.2v1.2h-1.2zm1.2 0h1.2v1.2h-1.2zm1.2 0h1.2v1.2h-1.2zm1.2 0h1.2v1.2h-1.2zm1.2 0h1.2v1.2h-1.2zm1.2 0h1.2v1.2h-1.2zm1.2 0h1.2v1.2h-1.2zm1.2 0h1.2v1.2h-1.2zm1.2 0h1.2v1.2h-1.2zm1.2 0h1.2v1.2h-1.2zm-43.2 1.2h1.2v1.2h-1.2zm2.4 0h1.2v1.2h-1.2zm1.2 0h1.2v1.2h-1.2zm1.2 0h1.2v1.2h-1.2zm2.4 0h1.2v1.2h-1.2zm2.4 0h1.2v1.2h-1.2zm1.2 0h1.2v1.2h-1.2zm6 0h1.2v1.2h-1.2zm1.2 0h1.2v1.2h-1.2zm1.2 0h1.2v1.2h-1.2zm6 0h1.2v1.2h-1.2zm6 0h1.2v1.2h-1.2zm1.2 0h1.2v1.2h-1.2zm1.2 0h1.2v1.2h-1.2zm2.4 0h1.2v1.2h-1.2zm1.2 0h1.2v1.2h-1.2zm1.2 0h1.2v1.2h-1.2zm1.2 0h1.2v1.2h-1.2zm3.6 0h1.2v1.2h-1.2zm-43.2 1.2h1.2v1.2h-1.2zm2.4 0h1.2v1.2h-1.2zm1.2 0h1.2v1.2h-1.2zm1.2 0h1.2v1.2h-1.2zm2.4 0h1.2v1.2h-1.2zm2.4 0h1.2v1.2h-1.2zm1.2 0h1.2v1.2h-1.2zm1.2 0h1.2v1.2h-1.2zm9.6 0h1.2v1.2h-1.2zm2.4 0h1.2v1.2h-1.2zm1.2 0h1.2v1.2h-1.2zm2.4 0h1.2v1.2h-1.2zm1.2 0h1.2v1.2h-1.2zm3.6 0h1.2v1.2h-1.2zm1.2 0h1.2v1.2h-1.2zm1.2 0h1.2v1.2h-1.2zm8.4 0h1.2v1.2h-1.2zm-43.2 1.2h1.2v1.2h-1.2zm7.2 0h1.2v1.2h-1.2zm4.8 0h1.2v1.2h-1.2zm2.4 0h1.2v1.2h-1.2zm1.2 0h1.2v1.2h-1.2zm3.6 0h1.2v1.2h-1.2zm2.4 0h1.2v1.2h-1.2zm3.6 0h1.2v1.2h-1.2zm1.2 0h1.2v1.2h-1.2zm8.4 0h1.2v1.2h-1.2zm1.2 0h1.2v1.2h-1.2zm2.4 0h1.2v1.2h-1.2zm1.2 0h1.2v1.2h-1.2zm1.2 0h1.2v1.2h-1.2zm2.4 0h1.2v1.2h-1.2zm-43.2 1.2h1.2v1.2h-1.2zm1.2 0h1.2v1.2h-1.2zm1.2 0h1.2v1.2h-1.2zm1.2 0h1.2v1.2h-1.2zm1.2 0h1.2v1.2h-1.2zm1.2 0h1.2v1.2h-1.2zm1.2 0h1.2v1.2h-1.2zm2.4 0h1.2v1.2h-1.2zm2.4 0h1.2v1.2h-1.2zm2.4 0h1.2v1.2h-1.2zm4.8 0h1.2v1.2h-1.2zm6 0h1.2v1.2h-1.2zm1.2 0h1.2v1.2h-1.2zm2.4 0h1.2v1.2h-1.2zm6 0h1.2v1.2h-1.2zm1.2 0h1.2v1.2h-1.2zm1.2 0h1.2v1.2h-1.2zm1.2 0h1.2v1.2h-1.2zm3.6 0h1.2v1.2h-1.2zm1.2 0h1.2v1.2h-1.2z"/></svg>