<?xml version='1.0' encoding='UTF-8'?>
<svg width="59.4mm" height="60.36mm" version="1.1" viewBox="0 0 59.40 60.36" xmlns="http://www.w3.org/2000/svg"><path d="M2.4,2.4h54.6v0.3h-54.6z M2.4,56.7h2.4v0.3h-2.4z M28.8,56.7h28.2v0.3h-28.2z M2.4,2.7v54.0h0.3v-54.0z M56.7,2.7v54.0h0.3v-54.0z" id="qrplatba-border" fill="#000000" fill-opacity="1" fill-rule="nonzero" stroke="none" /><text style="font-size:4.20px;font-weight:bold;fill:#000000;font-family:Arial;" x="7.5" y="59.1" id="qrplatba-text">QR platba</text><path d="M7.50,7.50H8.70V8.70H7.50zM8.70,7.50H9.90V8.70H8.70zM9.90,7.50H11.10V8.70H9.90zM11.10,7.50H12.30V8.70H11.10zM12.30,7.50H13.50V8.70H12.30zM13.50,7.50H14.70V8.70H13.50zM14.70,7.50H15.90V8.70H14.70zM18.30,7.50H19.50V8.70H18.30zM21.90,7.50H23.10V8.70H21.90zM23.10,7.50H24.30V8.70H23.10zM24.30,7.50H25.50V8.70H24.30zM26.70,7.50H27.90V8.70H26.70zM27.90,7.50H29.10V8.70H27.90zM37.50,7.50H38.70V8.70H37.50zM39.90,7.50H41.10V8.70H39.90zM41.10,7.50H42.30V8.70H41.10zM43.50,7.50H44.70V8.70H43.50zM44.70,7.50H45.90V8.70H44.70zM45.90,7.50H47.10V8.70H45.90zM47.10,7.50H48.30V8.70H47.10zM48.30,7.50H49.50V8.70H48.30zM49.50,7.50H50.70V8.70H49.50zM50.70,7.50H51.90V8.70H50.70zM7.50,8.70H8.70V9.90H7.50zM14.70,8.70H15.90V9.90H14.70zM19.50,8.70H20.70V9.90H19.50zM20.70,8.70H21.90V9.90H20.70zM23.10,8.70H24.30V9.90H23.10zM24.30,8.70H25.50V9.90H24.30zM26.70,8.70H27.90V9.90H26.70zM31.50,8.70H32.70V9.90H31.50zM32.70,8.70H33.90V9.90H32.70zM35.10,8.70H36.30V9.90H35.10zM36.30,8.70H37.50V9.90H36.30zM43.50,8.70H44.70V9.90H43.50zM50.70,8.70H51.90V9.90H50.70zM7.50,9.90H8.70V11.10H7.50zM9.90,9.90H11.10V11.10H9.90zM11.10,9.90H12.30V11.10H11.10zM12.30,9.90H13.50V11.10H12.30zM14.70,9.90H15.90V11.10H14.70zM17.10,9.90H18.30V11.10H17.10zM19.50,9.90H20.70V11.10H19.50zM25.50,9.90H26.70V11.10H25.50zM27.90,9.90H29.10V11.10H27.90zM32.70,9.90H33.90V11.10H32.70zM33.90,9.90H35.10V11.10H33.90zM35.10,9.90H36.30V11.10H35.10zM37.50,9.90H38.70V11.10H37.50zM39.90,9.90H41.10V11.10H39.90zM43.50,9.90H44.70V11.10H43.50zM45.90,9.90H47.10V11.10H45.90zM47.10,9.90H48.30V11.10H47.10zM48.30,9.90H49.50V11.10H48.30zM50.70,9.90H51.90V11.10H50.70zM7.50,11.10H8.70V12.30H7.50zM9.90,11.10H11.10V12.30H9.90zM11.10,11.10H12.30V12.30H11.10zM12.30,11.10H13.50V12.30H12.30zM14.70,11.10H15.90V12.30H14.70zM17.10,11.10H18.30V12.30H17.10zM18.30,11.10H19.50V12.30H18.30zM19.50,11.10H20.70V12.30H19.50zM21.90,11.10H23.10V12.30H21.90zM23.10,11.10H24.30V12.30H23.10zM26.70,11.10H27.90V12.30H26.70zM31.50,11.10H32.70V12.30H31.50zM35.10,11.10H36.30V12.30H35.10zM36.30,11.10H37.50V12.30H36.30zM37.50,11.10H38.70V12.30H37.50zM38.70,11.10H39.90V12.30H38.70zM41.10,11.10H42.30V12.30H41.10zM43.50,11.10H44.70V12.30H43.50zM45.90,11.10H47.10V12.30H45.90zM47.10,11.10H48.30V12.30H47.10zM48.30,11.10H49.50V12.30H48.30zM50.70,11.10H51.90V12.30H50.70zM7.50,12.30H8.70V13.50H7.50zM9.90,12.30H11.10V13.50H9.90zM11.10,12.30H12.30V13.50H11.10zM12.30,12.30H13.50V13.50H12.30zM14.70,12.30H15.90V13.50H14.70zM17.10,12.30H18.30V13.50H17.10zM18.30,12.30H19.50V13.50H18.30zM19.50,12.30H20.70V13.50H19.50zM21.90,12.30H23.10V13.50H21.90zM23.10,12.30H24.30V13.50H23.10zM24.30,12.30H25.50V13.50H24.30zM27.90,12.30H29.10V13.50H27.90zM30.30,12.30H31.50V13.50H30.30zM31.50,12.30H32.70V13.50H31.50zM32.70,12.30H33.90V13.50H32.70zM35.10,12.30H36.30V13.50H35.10zM38.70,12.30H39.90V13.50H38.70zM39.90,12.30H41.10V13.50H39.90zM41.10,12.30H42.30V13.50H41.10zM43.50,12.30H44.70V13.50H43.50zM45.90,12.30H47.10V13.50H45.90zM47.10,12.30H48.30V13.50H47.10zM48.30,12.30H49.50V13.50H48.30zM50.70,12.30H51.90V13.50H50.70zM7.50,13.50H8.70V14.70H7.50zM14.70,13.50H15.90V14.70H14.70zM17.10,13.50H18.30V14.70H17.10zM19.50,13.50H20.70V14.70H19.50zM21.90,13.50H23.10V14.70H21.90zM27.90,13.50H29.10V14.70H27.90zM32.70,13.50H33.90V14.70H32.70zM36.30,13.50H37.50V14.70H36.30zM39.90,13.50H41.10V14.70H39.90zM43.50,13.50H44.70V14.70H43.50zM50.70,13.50H51.90V14.70H50.70zM7.50,14.70H8.70V15.90H7.50zM8.70,14.70H9.90V15.90H8.70zM9.90,14.70H11.10V15.90H9.90zM11.10,14.70H12.30V15.90H11.10zM12.30,14.70H13.50V15.90H12.30zM13.50,14.70H14.70V15.90H13.50zM14.70,14.70H15.90V15.90H14.70zM17.10,14.70H18.30V15.90H17.10zM19.50,14.70H20.70V15.90H19.50zM21.90,14.70H23.10V15.90H21.90zM24.30,14.70H25.50V15.90H24.30zM26.70,14.70H27.90V15.90H26.70zM29.10,14.70H30.30V15.90H29.10zM31.50,14.70H32.70V15.90H31.50zM33.90,14.70H35.10V15.90H33.90zM36.30,14.70H37.50V15.90H36.30zM38.70,14.70H39.90V15.90H38.70zM41.10,14.70H42.30V15.90H41.10zM43.50,14.70H44.70V15.90H43.50zM44.70,14.70H45.90V15.90H44.70zM45.90,14.70H47.10V15.90H45.90zM47.10,14.70H48.30V15.90H47.10zM48.30,14.70H49.50V15.90H48.30zM49.50,14.70H50.70V15.90H49.50zM50.70,14.70H51.90V15.90H50.70zM17.10,15.90H18.30V17.10H17.10zM21.90,15.90H23.10V17.10H21.90zM25.50,15.90H26.70V17.10H25.50zM27.90,15.90H29.10V17.10H27.90zM29.10,15.90H30.30V17.10H29.10zM30.30,15.90H31.50V17.10H30.30zM31.50,15.90H32.70V17.10H31.50zM32.70,15.90H33.90V17.10H32.70zM33.90,15.90H35.10V17.10H33.90zM35.10,15.90H36.30V17.10H35.10zM36.30,15.90H37.50V17.10H36.30zM37.50,15.90H38.70V17.10H37.50zM39.90,15.90H41.10V17.10H39.90zM7.50,17.10H8.70V18.30H7.50zM9.90,17.10H11.10V18.30H9.90zM11.10,17.10H12.30V18.30H11.10zM12.30,17.10H13.50V18.30H12.30zM13.50,17.10H14.70V18.30H13.50zM14.70,17.10H15.90V18.30H14.70zM18.30,17.10H19.50V18.30H18.30zM19.50,17.10H20.70V18.30H19.50zM20.70,17.10H21.90V18.30H20.70zM21.90,17.10H23.10V18.30H21.90zM23.10,17.10H24.30V18.30H23.10zM25.50,17.10H26.70V18.30H25.50zM26.70,17.10H27.90V18.30H26.70zM30.30,17.10H31.50V18.30H30.30zM32.70,17.10H33.90V18.30H32.70zM35.10,17.10H36.30V18.30H35.10zM38.70,17.10H39.90V18.30H38.70zM39.90,17.10H41.10V18.30H39.90zM43.50,17.10H44.70V18.30H43.50zM44.70,17.10H45.90V18.30H44.70zM45.90,17.10H47.10V18.30H45.90zM47.10,17.10H48.30V18.30H47.10zM48.30,17.10H49.50V18.30H48.30zM7.50,18.30H8.70V19.50H7.50zM8.70,18.30H9.90V19.50H8.70zM9.90,18.30H11.10V19.50H9.90zM12.30,18.30H13.50V19.50H12.30zM17.10,18.30H18.30V19.50H17.10zM18.30,18.30H19.50V19.50H18.30zM24.30,18.30H25.50V19.50H24.30zM25.50,18.30H26.70V19.50H25.50zM29.10,18.30H30.30V19.50H29.10zM31.50,18.30H32.70V19.50H31.50zM32.70,18.30H33.90V19.50H32.70zM33.90,18.30H35.10V19.50H33.90zM36.30,18.30H37.50V19.50H36.30zM37.50,18.30H38.70V19.50H37.50zM39.90,18.30H41.10V19.50H39.90zM41.10,18.30H42.30V19.50H41.10zM45.90,18.30H47.10V19.50H45.90zM47.10,18.30H48.30V19.50H47.10zM48.30,18.30H49.50V19.50H48.30zM50.70,18.30H51.90V19.50H50.70zM7.50,19.50H8.70V20.70H7.50zM9.90,19.50H11.10V20.70H9.90zM11.10,19.50H12.30V20.70H11.10zM12.30,19.50H13.50V20.70H12.30zM13.50,19.50H14.70V20.70H13.50zM14.70,19.50H15.90V20.70H14.70zM20.70,19.50H21.90V20.70H20.70zM25.50,19.50H26.70V20.70H25.50zM26.70,19.50H27.90V20.70H26.70zM29.10,19.50H30.30V20.70H29.10zM30.30,19.50H31.50V20.70H30.30zM32.70,19.50H33.90V20.70H32.70zM37.50,19.50H38.70V20.70H37.50zM43.50,19.50H44.70V20.70H43.50zM48.30,19.50H49.50V20.70H48.30zM49.50,19.50H50.70V20.70H49.50zM50.70,19.50H51.90V20.70H50.70zM8.70,20.70H9.90V21.90H8.70zM12.30,20.70H13.50V21.90H12.30zM18.30,20.70H19.50V21.90H18.30zM20.70,20.70H21.90V21.90H20.70zM25.50,20.70H26.70V21.90H25.50zM30.30,20.70H31.50V21.90H30.30zM31.50,20.70H32.70V21.90H31.50zM36.30,20.70H37.50V21.90H36.30zM39.90,20.70H41.10V21.90H39.90zM42.30,20.70H43.50V21.90H42.30zM43.50,20.70H44.70V21.90H43.50zM47.10,20.70H48.30V21.90H47.10zM50.70,20.70H51.90V21.90H50.70zM7.50,21.90H8.70V23.10H7.50zM11.10,21.90H12.30V23.10H11.10zM12.30,21.90H13.50V23.10H12.30zM14.70,21.90H15.90V23.10H14.70zM15.90,21.90H17.10V23.10H15.90zM18.30,21.90H19.50V23.10H18.30zM19.50,21.90H20.70V23.10H19.50zM23.10,21.90H24.30V23.10H23.10zM24.30,21.90H25.50V23.10H24.30zM25.50,21.90H26.70V23.10H25.50zM26.70,21.90H27.90V23.10H26.70zM30.30,21.90H31.50V23.10H30.30zM32.70,21.90H33.90V23.10H32.70zM33.90,21.90H35.10V23.10H33.90zM36.30,21.90H37.50V23.10H36.30zM41.10,21.90H42.30V23.10H41.10zM42.30,21.90H43.50V23.10H42.30zM43.50,21.90H44.70V23.10H43.50zM50.70,21.90H51.90V23.10H50.70zM7.50,23.10H8.70V24.30H7.50zM8.70,23.10H9.90V24.30H8.70zM9.90,23.10H11.10V24.30H9.90zM11.10,23.10H12.30V24.30H11.10zM12.30,23.10H13.50V24.30H12.30zM17.10,23.10H18.30V24.30H17.10zM18.30,23.10H19.50V24.30H18.30zM19.50,23.10H20.70V24.30H19.50zM20.70,23.10H21.90V24.30H20.70zM21.90,23.10H23.10V24.30H21.90zM25.50,23.10H26.70V24.30H25.50zM26.70,23.10H27.90V24.30H26.70zM33.90,23.10H35.10V24.30H33.90zM35.10,23.10H36.30V24.30H35.10zM37.50,23.10H38.70V24.30H37.50zM38.70,23.10H39.90V24.30H38.70zM39.90,23.10H41.10V24.30H39.90zM43.50,23.10H44.70V24.30H43.50zM44.70,23.10H45.90V24.30H44.70zM50.70,23.10H51.90V24.30H50.70zM8.70,24.30H9.90V25.50H8.70zM9.90,24.30H11.10V25.50H9.90zM11.10,24.30H12.30V25.50H11.10zM13.50,24.30H14.70V25.50H13.50zM14.70,24.30H15.90V25.50H14.70zM18.30,24.30H19.50V25.50H18.30zM19.50,24.30H20.70V25.50H19.50zM21.90,24.30H23.10V25.50H21.90zM23.10,24.30H24.30V25.50H23.10zM29.10,24.30H30.30V25.50H29.10zM31.50,24.30H32.70V25.50H31.50zM33.90,24.30H35.10V25.50H33.90zM36.30,24.30H37.50V25.50H36.30zM38.70,24.30H39.90V25.50H38.70zM39.90,24.30H41.10V25.50H39.90zM45.90,24.30H47.10V25.50H45.90zM47.10,24.30H48.30V25.50H47.10zM49.50,24.30H50.70V25.50H49.50zM9.90,25.50H11.10V26.70H9.90zM12.30,25.50H13.50V26.70H12.30zM13.50,25.50H14.70V26.70H13.50zM15.90,25.50H17.10V26.70H15.90zM19.50,25.50H20.70V26.70H19.50zM20.70,25.50H21.90V26.70H20.70zM21.90,25.50H23.10V26.70H21.90zM23.10,25.50H24.30V26.70H23.10zM24.30,25.50H25.50V26.70H24.30zM25.50,25.50H26.70V26.70H25.50zM31.50,25.50H32.70V26.70H31.50zM35.10,25.50H36.30V26.70H35.10zM37.50,25.50H38.70V26.70H37.50zM42.30,25.50H43.50V26.70H42.30zM43.50,25.50H44.70V26.70H43.50zM45.90,25.50H47.10V26.70H45.90zM47.10,25.50H48.30V26.70H47.10zM49.50,25.50H50.70V26.70H49.50zM7.50,26.70H8.70V27.90H7.50zM8.70,26.70H9.90V27.90H8.70zM9.90,26.70H11.10V27.90H9.90zM12.30,26.70H13.50V27.90H12.30zM13.50,26.70H14.70V27.90H13.50zM14.70,26.70H15.90V27.90H14.70zM15.90,26.70H17.10V27.90H15.90zM17.10,26.70H18.30V27.90H17.10zM18.30,26.70H19.50V27.90H18.30zM19.50,26.70H20.70V27.90H19.50zM21.90,26.70H23.10V27.90H21.90zM24.30,26.70H25.50V27.90H24.30zM25.50,26.70H26.70V27.90H25.50zM29.10,26.70H30.30V27.90H29.10zM31.50,26.70H32.70V27.90H31.50zM32.70,26.70H33.90V27.90H32.70zM33.90,26.70H35.10V27.90H33.90zM36.30,26.70H37.50V27.90H36.30zM38.70,26.70H39.90V27.90H38.70zM42.30,26.70H43.50V27.90H42.30zM43.50,26.70H44.70V27.90H43.50zM44.70,26.70H45.90V27.90H44.70zM47.10,26.70H48.30V27.90H47.10zM48.30,26.70H49.50V27.90H48.30zM49.50,26.70H50.70V27.90H49.50zM8.70,27.90H9.90V29.10H8.70zM11.10,27.90H12.30V29.10H11.10zM13.50,27.90H14.70V29.10H13.50zM15.90,27.90H17.10V29.10H15.90zM17.10,27.90H18.30V29.10H17.10zM18.30,27.90H19.50V29.10H18.30zM20.70,27.90H21.90V29.10H20.70zM23.10,27.90H24.30V29.10H23.10zM24.30,27.90H25.50V29.10H24.30zM25.50,27.90H26.70V29.10H25.50zM26.70,27.90H27.90V29.10H26.70zM37.50,27.90H38.70V29.10H37.50zM38.70,27.90H39.90V29.10H38.70zM41.10,27.90H42.30V29.10H41.10zM44.70,27.90H45.90V29.10H44.70zM45.90,27.90H47.10V29.10H45.90zM47.10,27.90H48.30V29.10H47.10zM49.50,27.90H50.70V29.10H49.50zM50.70,27.90H51.90V29.10H50.70zM9.90,29.10H11.10V30.30H9.90zM11.10,29.10H12.30V30.30H11.10zM14.70,29.10H15.90V30.30H14.70zM15.90,29.10H17.10V30.30H15.90zM17.10,29.10H18.30V30.30H17.10zM18.30,29.10H19.50V30.30H18.30zM19.50,29.10H20.70V30.30H19.50zM29.10,29.10H30.30V30.30H29.10zM31.50,29.10H32.70V30.30H31.50zM33.90,29.10H35.10V30.30H33.90zM35.10,29.10H36.30V30.30H35.10zM36.30,29.10H37.50V30.30H36.30zM37.50,29.10H38.70V30.30H37.50zM38.70,29.10H39.90V30.30H38.70zM43.50,29.10H44.70V30.30H43.50zM44.70,29.10H45.90V30.30H44.70zM47.10,29.10H48.30V30.30H47.10zM49.50,29.10H50.70V30.30H49.50zM50.70,29.10H51.90V30.30H50.70zM7.50,30.30H8.70V31.50H7.50zM8.70,30.30H9.90V31.50H8.70zM9.90,30.30H11.10V31.50H9.90zM11.10,30.30H12.30V31.50H11.10zM17.10,30.30H18.30V31.50H17.10zM19.50,30.30H20.70V31.50H19.50zM23.10,30.30H24.30V31.50H23.10zM24.30,30.30H25.50V31.50H24.30zM26.70,30.30H27.90V31.50H26.70zM35.10,30.30H36.30V31.50H35.10zM37.50,30.30H38.70V31.50H37.50zM39.90,30.30H41.10V31.50H39.90zM41.10,30.30H42.30V31.50H41.10zM42.30,30.30H43.50V31.50H42.30zM49.50,30.30H50.70V31.50H49.50zM7.50,31.50H8.70V32.70H7.50zM13.50,31.50H14.70V32.70H13.50zM14.70,31.50H15.90V32.70H14.70zM15.90,31.50H17.10V32.70H15.90zM18.30,31.50H19.50V32.70H18.30zM21.90,31.50H23.10V32.70H21.90zM24.30,31.50H25.50V32.70H24.30zM31.50,31.50H32.70V32.70H31.50zM33.90,31.50H35.10V32.70H33.90zM35.10,31.50H36.30V32.70H35.10zM38.70,31.50H39.90V32.70H38.70zM41.10,31.50H42.30V32.70H41.10zM42.30,31.50H43.50V32.70H42.30zM43.50,31.50H44.70V32.70H43.50zM45.90,31.50H47.10V32.70H45.90zM47.10,31.50H48.30V32.70H47.10zM50.70,31.50H51.90V32.70H50.70zM13.50,32.70H14.70V33.90H13.50zM20.70,32.70H21.90V33.90H20.70zM21.90,32.70H23.10V33.90H21.90zM24.30,32.70H25.50V33.90H24.30zM25.50,32.70H26.70V33.90H25.50zM27.90,32.70H29.10V33.90H27.90zM29.10,32.70H30.30V33.90H29.10zM32.70,32.70H33.90V33.90H32.70zM39.90,32.70H41.10V33.90H39.90zM41.10,32.70H42.30V33.90H41.10zM43.50,32.70H44.70V33.90H43.50zM47.10,32.70H48.30V33.90H47.10zM48.30,32.70H49.50V33.90H48.30zM50.70,32.70H51.90V33.90H50.70zM8.70,33.90H9.90V35.10H8.70zM9.90,33.90H11.10V35.10H9.90zM11.10,33.90H12.30V35.10H11.10zM12.30,33.90H13.50V35.10H12.30zM13.50,33.90H14.70V35.10H13.50zM14.70,33.90H15.90V35.10H14.70zM17.10,33.90H18.30V35.10H17.10zM21.90,33.90H23.10V35.10H21.90zM24.30,33.90H25.50V35.10H24.30zM27.90,33.90H29.10V35.10H27.90zM32.70,33.90H33.90V35.10H32.70zM36.30,33.90H37.50V35.10H36.30zM39.90,33.90H41.10V35.10H39.90zM41.10,33.90H42.30V35.10H41.10zM43.50,33.90H44.70V35.10H43.50zM47.10,33.90H48.30V35.10H47.10zM48.30,33.90H49.50V35.10H48.30zM49.50,33.90H50.70V35.10H49.50zM8.70,35.10H9.90V36.30H8.70zM9.90,35.10H11.10V36.30H9.90zM12.30,35.10H13.50V36.30H12.30zM13.50,35.10H14.70V36.30H13.50zM15.90,35.10H17.10V36.30H15.90zM17.10,35.10H18.30V36.30H17.10zM18.30,35.10H19.50V36.30H18.30zM24.30,35.10H25.50V36.30H24.30zM25.50,35.10H26.70V36.30H25.50zM27.90,35.10H29.10V36.30H27.90zM29.10,35.10H30.30V36.30H29.10zM32.70,35.10H33.90V36.30H32.70zM33.90,35.10H35.10V36.30H33.90zM37.50,35.10H38.70V36.30H37.50zM43.50,35.10H44.70V36.30H43.50zM47.10,35.10H48.30V36.30H47.10zM50.70,35.10H51.90V36.30H50.70zM8.70,36.30H9.90V37.50H8.70zM9.90,36.30H11.10V37.50H9.90zM11.10,36.30H12.30V37.50H11.10zM12.30,36.30H13.50V37.50H12.30zM14.70,36.30H15.90V37.50H14.70zM15.90,36.30H17.10V37.50H15.90zM17.10,36.30H18.30V37.50H17.10zM20.70,36.30H21.90V37.50H20.70zM21.90,36.30H23.10V37.50H21.90zM25.50,36.30H26.70V37.50H25.50zM26.70,36.30H27.90V37.50H26.70zM32.70,36.30H33.90V37.50H32.70zM35.10,36.30H36.30V37.50H35.10zM36.30,36.30H37.50V37.50H36.30zM38.70,36.30H39.90V37.50H38.70zM39.90,36.30H41.10V37.50H39.90zM45.90,36.30H47.10V37.50H45.90zM48.30,36.30H49.50V37.50H48.30zM7.50,37.50H8.70V38.70H7.50zM8.70,37.50H9.90V38.70H8.70zM9.90,37.50H11.10V38.70H9.90zM13.50,37.50H14.70V38.70H13.50zM17.10,37.50H18.30V38.70H17.10zM18.30,37.50H19.50V38.70H18.30zM21.90,37.50H23.10V38.70H21.90zM25.50,37.50H26.70V38.70H25.50zM29.10,37.50H30.30V38.70H29.10zM31.50,37.50H32.70V38.70H31.50zM32.70,37.50H33.90V38.70H32.70zM33.90,37.50H35.10V38.70H33.90zM36.30,37.50H37.50V38.70H36.30zM38.70,37.50H39.90V38.70H38.70zM39.90,37.50H41.10V38.70H39.90zM41.10,37.50H42.30V38.70H41.10zM42.30,37.50H43.50V38.70H42.30zM44.70,37.50H45.90V38.70H44.70zM45.90,37.50H47.10V38.70H45.90zM49.50,37.50H50.70V38.70H49.50zM50.70,37.50H51.90V38.70H50.70zM7.50,38.70H8.70V39.90H7.50zM11.10,38.70H12.30V39.90H11.10zM14.70,38.70H15.90V39.90H14.70zM15.90,38.70H17.10V39.90H15.90zM17.10,38.70H18.30V39.90H17.10zM18.30,38.70H19.50V39.90H18.30zM20.70,38.70H21.90V39.90H20.70zM23.10,38.70H24.30V39.90H23.10zM25.50,38.70H26.70V39.90H25.50zM26.70,38.70H27.90V39.90H26.70zM27.90,38.70H29.10V39.90H27.90zM29.10,38.70H30.30V39.90H29.10zM30.30,38.70H31.50V39.90H30.30zM32.70,38.70H33.90V39.90H32.70zM33.90,38.70H35.10V39.90H33.90zM36.30,38.70H37.50V39.90H36.30zM39.90,38.70H41.10V39.90H39.90zM41.10,38.70H42.30V39.90H41.10zM43.50,38.70H44.70V39.90H43.50zM44.70,38.70H45.90V39.90H44.70zM49.50,38.70H50.70V39.90H49.50zM50.70,38.70H51.90V39.90H50.70zM7.50,39.90H8.70V41.10H7.50zM9.90,39.90H11.10V41.10H9.90zM12.30,39.90H13.50V41.10H12.30zM13.50,39.90H14.70V41.10H13.50zM18.30,39.90H19.50V41.10H18.30zM19.50,39.90H20.70V41.10H19.50zM24.30,39.90H25.50V41.10H24.30zM25.50,39.90H26.70V41.10H25.50zM27.90,39.90H29.10V41.10H27.90zM29.10,39.90H30.30V41.10H29.10zM30.30,39.90H31.50V41.10H30.30zM31.50,39.90H32.70V41.10H31.50zM33.90,39.90H35.10V41.10H33.90zM36.30,39.90H37.50V41.10H36.30zM39.90,39.90H41.10V41.10H39.90zM42.30,39.90H43.50V41.10H42.30zM44.70,39.90H45.90V41.10H44.70zM48.30,39.90H49.50V41.10H48.30zM7.50,41.10H8.70V42.30H7.50zM13.50,41.10H14.70V42.30H13.50zM14.70,41.10H15.90V42.30H14.70zM15.90,41.10H17.10V42.30H15.90zM19.50,41.10H20.70V42.30H19.50zM23.10,41.10H24.30V42.30H23.10zM25.50,41.10H26.70V42.30H25.50zM30.30,41.10H31.50V42.30H30.30zM31.50,41.10H32.70V42.30H31.50zM32.70,41.10H33.90V42.30H32.70zM35.10,41.10H36.30V42.30H35.10zM36.30,41.10H37.50V42.30H36.30zM41.10,41.10H42.30V42.30H41.10zM42.30,41.10H43.50V42.30H42.30zM43.50,41.10H44.70V42.30H43.50zM44.70,41.10H45.90V42.30H44.70zM45.90,41.10H47.10V42.30H45.90zM49.50,41.10H50.70V42.30H49.50zM17.10,42.30H18.30V43.50H17.10zM19.50,42.30H20.70V43.50H19.50zM23.10,42.30H24.30V43.50H23.10zM25.50,42.30H26.70V43.50H25.50zM31.50,42.30H32.70V43.50H31.50zM36.30,42.30H37.50V43.50H36.30zM39.90,42.30H41.10V43.50H39.90zM41.10,42.30H42.30V43.50H41.10zM45.90,42.30H47.10V43.50H45.90zM47.10,42.30H48.30V43.50H47.10zM49.50,42.30H50.70V43.50H49.50zM7.50,43.50H8.70V44.70H7.50zM8.70,43.50H9.90V44.70H8.70zM9.90,43.50H11.10V44.70H9.90zM11.10,43.50H12.30V44.70H11.10zM12.30,43.50H13.50V44.70H12.30zM13.50,43.50H14.70V44.70H13.50zM14.70,43.50H15.90V44.70H14.70zM19.50,43.50H20.70V44.70H19.50zM20.70,43.50H21.90V44.70H20.70zM21.90,43.50H23.10V44.70H21.90zM23.10,43.50H24.30V44.70H23.10zM24.30,43.50H25.50V44.70H24.30zM25.50,43.50H26.70V44.70H25.50zM26.70,43.50H27.90V44.70H26.70zM29.10,43.50H30.30V44.70H29.10zM30.30,43.50H31.50V44.70H30.30zM33.90,43.50H35.10V44.70H33.90zM36.30,43.50H37.50V44.70H36.30zM39.90,43.50H41.10V44.70H39.90zM41.10,43.50H42.30V44.70H41.10zM43.50,43.50H44.70V44.70H43.50zM45.90,43.50H47.10V44.70H45.90zM49.50,43.50H50.70V44.70H49.50zM50.70,43.50H51.90V44.70H50.70zM7.50,44.70H8.70V45.90H7.50zM14.70,44.70H15.90V45.90H14.70zM17.10,44.70H18.30V45.90H17.10zM19.50,44.70H20.70V45.90H19.50zM20.70,44.70H21.90V45.90H20.70zM21.90,44.70H23.10V45.90H21.90zM24.30,44.70H25.50V45.90H24.30zM25.50,44.70H26.70V45.90H25.50zM26.70,44.70H27.90V45.90H26.70zM30.30,44.70H31.50V45.90H30.30zM36.30,44.70H37.50V45.90H36.30zM37.50,44.70H38.70V45.90H37.50zM41.10,44.70H42.30V45.90H41.10zM45.90,44.70H47.10V45.90H45.90zM47.10,44.70H48.30V45.90H47.10zM49.50,44.70H50.70V45.90H49.50zM7.50,45.90H8.70V47.10H7.50zM9.90,45.90H11.10V47.10H9.90zM11.10,45.90H12.30V47.10H11.10zM12.30,45.90H13.50V47.10H12.30zM14.70,45.90H15.90V47.10H14.70zM17.10,45.90H18.30V47.10H17.10zM18.30,45.90H19.50V47.10H18.30zM24.30,45.90H25.50V47.10H24.30zM29.10,45.90H30.30V47.10H29.10zM31.50,45.90H32.70V47.10H31.50zM32.70,45.90H33.90V47.10H32.70zM33.90,45.90H35.10V47.10H33.90zM38.70,45.90H39.90V47.10H38.70zM39.90,45.90H41.10V47.10H39.90zM41.10,45.90H42.30V47.10H41.10zM42.30,45.90H43.50V47.10H42.30zM43.50,45.90H44.70V47.10H43.50zM44.70,45.90H45.90V47.10H44.70zM45.90,45.90H47.10V47.10H45.90zM47.10,45.90H48.30V47.10H47.10zM48.30,45.90H49.50V47.10H48.30zM49.50,45.90H50.70V47.10H49.50zM50.70,45.90H51.90V47.10H50.70zM7.50,47.10H8.70V48.30H7.50zM9.90,47.10H11.10V48.30H9.90zM11.10,47.10H12.30V48.30H11.10zM12.30,47.10H13.50V48.30H12.30zM14.70,47.10H15.90V48.30H14.70zM17.10,47.10H18.30V48.30H17.10zM18.30,47.10H19.50V48.30H18.30zM24.30,47.10H25.50V48.30H24.30zM25.50,47.10H26.70V48.30H25.50zM26.70,47.10H27.90V48.30H26.70zM32.70,47.10H33.90V48.30H32.70zM38.70,47.10H39.90V48.30H38.70zM39.90,47.10H41.10V48.30H39.90zM41.10,47.10H42.30V48.30H41.10zM43.50,47.10H44.70V48.30H43.50zM44.70,47.10H45.90V48.30H44.70zM45.90,47.10H47.10V48.30H45.90zM47.10,47.10H48.30V48.30H47.10zM50.70,47.10H51.90V48.30H50.70zM7.50,48.30H8.70V49.50H7.50zM9.90,48.30H11.10V49.50H9.90zM11.10,48.30H12.30V49.50H11.10zM12.30,48.30H13.50V49.50H12.30zM14.70,48.30H15.90V49.50H14.70zM17.10,48.30H18.30V49.50H17.10zM18.30,48.30H19.50V49.50H18.30zM19.50,48.30H20.70V49.50H19.50zM29.10,48.30H30.30V49.50H29.10zM31.50,48.30H32.70V49.50H31.50zM32.70,48.30H33.90V49.50H32.70zM35.10,48.30H36.30V49.50H35.10zM36.30,48.30H37.50V49.50H36.30zM39.90,48.30H41.10V49.50H39.90zM41.10,48.30H42.30V49.50H41.10zM42.30,48.30H43.50V49.50H42.30zM50.70,48.30H51.90V49.50H50.70zM7.50,49.50H8.70V50.70H7.50zM14.70,49.50H15.90V50.70H14.70zM19.50,49.50H20.70V50.70H19.50zM21.90,49.50H23.10V50.70H21.90zM23.10,49.50H24.30V50.70H23.10zM26.70,49.50H27.90V50.70H26.70zM29.10,49.50H30.30V50.70H29.10zM32.70,49.50H33.90V50.70H32.70zM33.90,49.50H35.10V50.70H33.90zM42.30,49.50H43.50V50.70H42.30zM43.50,49.50H44.70V50.70H43.50zM45.90,49.50H47.10V50.70H45.90zM47.10,49.50H48.30V50.70H47.10zM48.30,49.50H49.50V50.70H48.30zM50.70,49.50H51.90V50.70H50.70zM7.50,50.70H8.70V51.90H7.50zM8.70,50.70H9.90V51.90H8.70zM9.90,50.70H11.10V51.90H9.90zM11.10,50.70H12.30V51.90H11.10zM12.30,50.70H13.50V51.90H12.30zM13.50,50.70H14.70V51.90H13.50zM14.70,50.70H15.90V51.90H14.70zM17.10,50.70H18.30V51.90H17.10zM19.50,50.70H20.70V51.90H19.50zM21.90,50.70H23.10V51.90H21.90zM26.70,50.70H27.90V51.90H26.70zM32.70,50.70H33.90V51.90H32.70zM33.90,50.70H35.10V51.90H33.90zM36.30,50.70H37.50V51.90H36.30zM42.30,50.70H43.50V51.90H42.30zM43.50,50.70H44.70V51.90H43.50zM44.70,50.70H45.90V51.90H44.70zM45.90,50.70H47.10V51.90H45.90zM49.50,50.70H50.70V51.90H49.50zM50.70,50.70H51.90V51.90H50.70z" id="qr-path" fill="#000000" fill-opacity="1" fill-rule="nonzero" stroke="none" /></svg>