<?xml version='1.0' encoding='utf-8'?>
<svg height="262.895px" version="1.1" viewBox="0 0 247.0 262.895" width="247.0px" xmlns="http://www.w3.org/2000/svg"><path d="M 186.0 61.0 L 186.0 66.0 L 191.0 66.0 L 191.0 61.0 z M 61.0 171.0 L 61.0 176.0 L 66.0 176.0 L 66.0 171.0 z M 51.0 211.0 L 51.0 216.0 L 56.0 216.0 L 56.0 211.0 z M 126.0 51.0 L 126.0 56.0 L 131.0 56.0 L 131.0 51.0 z M 211.0 201.0 L 211.0 206.0 L 216.0 206.0 L 216.0 201.0 z M 191.0 41.0 L 191.0 46.0 L 196.0 46.0 L 196.0 41.0 z M 206.0 106.0 L 206.0 111.0 L 211.0 111.0 L 211.0 106.0 z M 196.0 46.0 L 196.0 51.0 L 201.0 51.0 L 201.0 46.0 z M 101.0 186.0 L 101.0 191.0 L 106.0 191.0 L 106.0 186.0 z M 81.0 66.0 L 81.0 71.0 L 86.0 71.0 L 86.0 66.0 z M 201.0 71.0 L 201.0 76.0 L 206.0 76.0 L 206.0 71.0 z M 106.0 181.0 L 106.0 186.0 L 111.0 186.0 L 111.0 181.0 z M 86.0 141.0 L 86.0 146.0 L 91.0 146.0 L 91.0 141.0 z M 206.0 136.0 L 206.0 141.0 L 211.0 141.0 L 211.0 136.0 z M 31.0 116.0 L 31.0 121.0 L 36.0 121.0 L 36.0 116.0 z M 211.0 141.0 L 211.0 146.0 L 216.0 146.0 L 216.0 141.0 z M 106.0 51.0 L 106.0 56.0 L 111.0 56.0 L 111.0 51.0 z M 41.0 166.0 L 41.0 171.0 L 46.0 171.0 L 46.0 166.0 z M 161.0 91.0 L 161.0 96.0 L 166.0 96.0 L 166.0 91.0 z M 46.0 41.0 L 46.0 46.0 L 51.0 46.0 L 51.0 41.0 z M 166.0 36.0 L 166.0 41.0 L 171.0 41.0 L 171.0 36.0 z M 106.0 201.0 L 106.0 206.0 L 111.0 206.0 L 111.0 201.0 z M 181.0 101.0 L 181.0 106.0 L 186.0 106.0 L 186.0 101.0 z M 171.0 81.0 L 171.0 86.0 L 176.0 86.0 L 176.0 81.0 z M 181.0 111.0 L 181.0 116.0 L 186.0 116.0 L 186.0 111.0 z M 171.0 191.0 L 171.0 196.0 L 176.0 196.0 L 176.0 191.0 z M 116.0 96.0 L 116.0 101.0 L 121.0 101.0 L 121.0 96.0 z M 186.0 136.0 L 186.0 141.0 L 191.0 141.0 L 191.0 136.0 z M 131.0 101.0 L 131.0 106.0 L 136.0 106.0 L 136.0 101.0 z M 121.0 81.0 L 121.0 86.0 L 126.0 86.0 L 126.0 81.0 z M 196.0 201.0 L 196.0 206.0 L 201.0 206.0 L 201.0 201.0 z M 71.0 91.0 L 71.0 96.0 L 76.0 96.0 L 76.0 91.0 z M 191.0 156.0 L 191.0 161.0 L 196.0 161.0 L 196.0 156.0 z M 76.0 76.0 L 76.0 81.0 L 81.0 81.0 L 81.0 76.0 z M 196.0 51.0 L 196.0 56.0 L 201.0 56.0 L 201.0 51.0 z M 146.0 76.0 L 146.0 81.0 L 151.0 81.0 L 151.0 76.0 z M 201.0 46.0 L 201.0 51.0 L 206.0 51.0 L 206.0 46.0 z M 71.0 121.0 L 71.0 126.0 L 76.0 126.0 L 76.0 121.0 z M 86.0 106.0 L 86.0 111.0 L 91.0 111.0 L 91.0 106.0 z M 206.0 161.0 L 206.0 166.0 L 211.0 166.0 L 211.0 161.0 z M 211.0 176.0 L 211.0 181.0 L 216.0 181.0 L 216.0 176.0 z M 36.0 136.0 L 36.0 141.0 L 41.0 141.0 L 41.0 136.0 z M 96.0 96.0 L 96.0 101.0 L 101.0 101.0 L 101.0 96.0 z M 31.0 101.0 L 31.0 106.0 L 36.0 106.0 L 36.0 101.0 z M 51.0 91.0 L 51.0 96.0 L 56.0 96.0 L 56.0 91.0 z M 171.0 36.0 L 171.0 41.0 L 176.0 41.0 L 176.0 36.0 z M 41.0 91.0 L 41.0 96.0 L 46.0 96.0 L 46.0 91.0 z M 31.0 211.0 L 31.0 216.0 L 36.0 216.0 L 36.0 211.0 z M 151.0 196.0 L 151.0 201.0 L 156.0 201.0 L 156.0 196.0 z M 46.0 116.0 L 46.0 121.0 L 51.0 121.0 L 51.0 116.0 z M 61.0 101.0 L 61.0 106.0 L 66.0 106.0 L 66.0 101.0 z M 181.0 166.0 L 181.0 171.0 L 186.0 171.0 L 186.0 166.0 z M 121.0 56.0 L 121.0 61.0 L 126.0 61.0 L 126.0 56.0 z M 111.0 176.0 L 111.0 181.0 L 116.0 181.0 L 116.0 176.0 z M 61.0 191.0 L 61.0 196.0 L 66.0 196.0 L 66.0 191.0 z M 136.0 71.0 L 136.0 76.0 L 141.0 76.0 L 141.0 71.0 z M 201.0 191.0 L 201.0 196.0 L 206.0 196.0 L 206.0 191.0 z M 116.0 151.0 L 116.0 156.0 L 121.0 156.0 L 121.0 151.0 z M 191.0 111.0 L 191.0 116.0 L 196.0 116.0 L 196.0 111.0 z M 136.0 196.0 L 136.0 201.0 L 141.0 201.0 L 141.0 196.0 z M 121.0 186.0 L 121.0 191.0 L 126.0 191.0 L 126.0 186.0 z M 81.0 76.0 L 81.0 81.0 L 86.0 81.0 L 86.0 76.0 z M 86.0 51.0 L 86.0 56.0 L 91.0 56.0 L 91.0 51.0 z M 76.0 131.0 L 76.0 136.0 L 81.0 136.0 L 81.0 131.0 z M 151.0 171.0 L 151.0 176.0 L 156.0 176.0 L 156.0 171.0 z M 91.0 66.0 L 91.0 71.0 L 96.0 71.0 L 96.0 66.0 z M 211.0 51.0 L 211.0 56.0 L 216.0 56.0 L 216.0 51.0 z M 156.0 156.0 L 156.0 161.0 L 161.0 161.0 L 161.0 156.0 z M 161.0 181.0 L 161.0 186.0 L 166.0 186.0 L 166.0 181.0 z M 31.0 56.0 L 31.0 61.0 L 36.0 61.0 L 36.0 56.0 z M 151.0 41.0 L 151.0 46.0 L 156.0 46.0 L 156.0 41.0 z M 166.0 186.0 L 166.0 191.0 L 171.0 191.0 L 171.0 186.0 z M 36.0 31.0 L 36.0 36.0 L 41.0 36.0 L 41.0 31.0 z M 51.0 86.0 L 51.0 91.0 L 56.0 91.0 L 56.0 86.0 z M 171.0 151.0 L 171.0 156.0 L 176.0 156.0 L 176.0 151.0 z M 176.0 196.0 L 176.0 201.0 L 181.0 201.0 L 181.0 196.0 z M 61.0 36.0 L 61.0 41.0 L 66.0 41.0 L 66.0 36.0 z M 181.0 41.0 L 181.0 46.0 L 186.0 46.0 L 186.0 41.0 z M 51.0 116.0 L 51.0 121.0 L 56.0 121.0 L 56.0 116.0 z M 41.0 196.0 L 41.0 201.0 L 46.0 201.0 L 46.0 196.0 z M 146.0 196.0 L 146.0 201.0 L 151.0 201.0 L 151.0 196.0 z M 126.0 36.0 L 126.0 41.0 L 131.0 41.0 L 131.0 36.0 z M 116.0 116.0 L 116.0 121.0 L 121.0 121.0 L 121.0 116.0 z M 191.0 146.0 L 191.0 151.0 L 196.0 151.0 L 196.0 146.0 z M 141.0 181.0 L 141.0 186.0 L 146.0 186.0 L 146.0 181.0 z M 121.0 141.0 L 121.0 146.0 L 126.0 146.0 L 126.0 141.0 z M 186.0 201.0 L 186.0 206.0 L 191.0 206.0 L 191.0 201.0 z M 91.0 191.0 L 91.0 196.0 L 96.0 196.0 L 96.0 191.0 z M 201.0 136.0 L 201.0 141.0 L 206.0 141.0 L 206.0 136.0 z M 206.0 71.0 L 206.0 76.0 L 211.0 76.0 L 211.0 71.0 z M 196.0 71.0 L 196.0 76.0 L 201.0 76.0 L 201.0 71.0 z M 211.0 46.0 L 211.0 51.0 L 216.0 51.0 L 216.0 46.0 z M 201.0 106.0 L 201.0 111.0 L 206.0 111.0 L 206.0 106.0 z M 86.0 126.0 L 86.0 131.0 L 91.0 131.0 L 91.0 126.0 z M 161.0 156.0 L 161.0 161.0 L 166.0 161.0 L 166.0 156.0 z M 31.0 171.0 L 31.0 176.0 L 36.0 176.0 L 36.0 171.0 z M 151.0 76.0 L 151.0 81.0 L 156.0 81.0 L 156.0 76.0 z M 91.0 131.0 L 91.0 136.0 L 96.0 136.0 L 96.0 131.0 z M 36.0 156.0 L 36.0 161.0 L 41.0 161.0 L 41.0 156.0 z M 156.0 51.0 L 156.0 56.0 L 161.0 56.0 L 161.0 51.0 z M 96.0 156.0 L 96.0 161.0 L 101.0 161.0 L 101.0 156.0 z M 41.0 181.0 L 41.0 186.0 L 46.0 186.0 L 46.0 181.0 z M 161.0 46.0 L 161.0 51.0 L 166.0 51.0 L 166.0 46.0 z M 181.0 56.0 L 181.0 61.0 L 186.0 61.0 L 186.0 56.0 z M 51.0 151.0 L 51.0 156.0 L 56.0 156.0 L 56.0 151.0 z M 186.0 31.0 L 186.0 36.0 L 191.0 36.0 L 191.0 31.0 z M 131.0 166.0 L 131.0 171.0 L 136.0 171.0 L 136.0 166.0 z M 111.0 86.0 L 111.0 91.0 L 116.0 91.0 L 116.0 86.0 z M 61.0 121.0 L 61.0 126.0 L 66.0 126.0 L 66.0 121.0 z M 136.0 161.0 L 136.0 166.0 L 141.0 166.0 L 141.0 161.0 z M 141.0 116.0 L 141.0 121.0 L 146.0 121.0 L 146.0 116.0 z M 121.0 116.0 L 121.0 121.0 L 126.0 121.0 L 126.0 116.0 z M 111.0 196.0 L 111.0 201.0 L 116.0 201.0 L 116.0 196.0 z M 71.0 66.0 L 71.0 71.0 L 76.0 71.0 L 76.0 66.0 z M 191.0 51.0 L 191.0 56.0 L 196.0 56.0 L 196.0 51.0 z M 141.0 86.0 L 141.0 91.0 L 146.0 91.0 L 146.0 86.0 z M 101.0 176.0 L 101.0 181.0 L 106.0 181.0 L 106.0 176.0 z M 201.0 61.0 L 201.0 66.0 L 206.0 66.0 L 206.0 61.0 z M 31.0 126.0 L 31.0 131.0 L 36.0 131.0 L 36.0 126.0 z M 151.0 111.0 L 151.0 116.0 L 156.0 116.0 L 156.0 111.0 z M 211.0 111.0 L 211.0 116.0 L 216.0 116.0 L 216.0 111.0 z M 96.0 121.0 L 96.0 126.0 L 101.0 126.0 L 101.0 121.0 z M 46.0 51.0 L 46.0 56.0 L 51.0 56.0 L 51.0 51.0 z M 56.0 61.0 L 56.0 66.0 L 61.0 66.0 L 61.0 61.0 z M 176.0 206.0 L 176.0 211.0 L 181.0 211.0 L 181.0 206.0 z M 136.0 206.0 L 136.0 211.0 L 141.0 211.0 L 141.0 206.0 z M 66.0 111.0 L 66.0 116.0 L 71.0 116.0 L 71.0 111.0 z M 186.0 146.0 L 186.0 151.0 L 191.0 151.0 L 191.0 146.0 z M 131.0 71.0 L 131.0 76.0 L 136.0 76.0 L 136.0 71.0 z M 121.0 71.0 L 121.0 76.0 L 126.0 76.0 L 126.0 71.0 z M 111.0 151.0 L 111.0 156.0 L 116.0 156.0 L 116.0 151.0 z M 71.0 101.0 L 71.0 106.0 L 76.0 106.0 L 76.0 101.0 z M 191.0 166.0 L 191.0 171.0 L 196.0 171.0 L 196.0 166.0 z M 141.0 41.0 L 141.0 46.0 L 146.0 46.0 L 146.0 41.0 z M 121.0 201.0 L 121.0 206.0 L 126.0 206.0 L 126.0 201.0 z M 186.0 191.0 L 186.0 196.0 L 191.0 196.0 L 191.0 191.0 z M 206.0 171.0 L 206.0 176.0 L 211.0 176.0 L 211.0 171.0 z M 76.0 116.0 L 76.0 121.0 L 81.0 121.0 L 81.0 116.0 z M 151.0 146.0 L 151.0 151.0 L 156.0 151.0 L 156.0 146.0 z M 101.0 101.0 L 101.0 106.0 L 106.0 106.0 L 106.0 101.0 z M 91.0 81.0 L 91.0 86.0 L 96.0 86.0 L 96.0 81.0 z M 81.0 141.0 L 81.0 146.0 L 86.0 146.0 L 86.0 141.0 z M 106.0 106.0 L 106.0 111.0 L 111.0 111.0 L 111.0 106.0 z M 41.0 111.0 L 41.0 116.0 L 46.0 116.0 L 46.0 111.0 z M 31.0 31.0 L 31.0 36.0 L 36.0 36.0 L 36.0 31.0 z M 36.0 96.0 L 36.0 101.0 L 41.0 101.0 L 41.0 96.0 z M 51.0 101.0 L 51.0 106.0 L 56.0 106.0 L 56.0 101.0 z M 171.0 46.0 L 171.0 51.0 L 176.0 51.0 L 176.0 46.0 z M 41.0 81.0 L 41.0 86.0 L 46.0 86.0 L 46.0 81.0 z M 56.0 106.0 L 56.0 111.0 L 61.0 111.0 L 61.0 106.0 z M 46.0 126.0 L 46.0 131.0 L 51.0 131.0 L 51.0 126.0 z M 61.0 91.0 L 61.0 96.0 L 66.0 96.0 L 66.0 91.0 z M 181.0 156.0 L 181.0 161.0 L 186.0 161.0 L 186.0 156.0 z M 51.0 131.0 L 51.0 136.0 L 56.0 136.0 L 56.0 131.0 z M 126.0 131.0 L 126.0 136.0 L 131.0 136.0 L 131.0 131.0 z M 41.0 211.0 L 41.0 216.0 L 46.0 216.0 L 46.0 211.0 z M 186.0 171.0 L 186.0 176.0 L 191.0 176.0 L 191.0 171.0 z M 131.0 146.0 L 131.0 151.0 L 136.0 151.0 L 136.0 146.0 z M 111.0 186.0 L 111.0 191.0 L 116.0 191.0 L 116.0 186.0 z M 141.0 56.0 L 141.0 61.0 L 146.0 61.0 L 146.0 56.0 z M 86.0 191.0 L 86.0 196.0 L 91.0 196.0 L 91.0 191.0 z M 196.0 126.0 L 196.0 131.0 L 201.0 131.0 L 201.0 126.0 z M 146.0 31.0 L 146.0 36.0 L 151.0 36.0 L 151.0 31.0 z M 201.0 151.0 L 201.0 156.0 L 206.0 156.0 L 206.0 151.0 z M 151.0 181.0 L 151.0 186.0 L 156.0 186.0 L 156.0 181.0 z M 101.0 116.0 L 101.0 121.0 L 106.0 121.0 L 106.0 116.0 z M 91.0 36.0 L 91.0 41.0 L 96.0 41.0 L 96.0 36.0 z M 211.0 61.0 L 211.0 66.0 L 216.0 66.0 L 216.0 61.0 z M 106.0 131.0 L 106.0 136.0 L 111.0 136.0 L 111.0 131.0 z M 151.0 51.0 L 151.0 56.0 L 156.0 56.0 L 156.0 51.0 z M 166.0 116.0 L 166.0 121.0 L 171.0 121.0 L 171.0 116.0 z M 36.0 61.0 L 36.0 66.0 L 41.0 66.0 L 41.0 61.0 z M 161.0 61.0 L 161.0 66.0 L 166.0 66.0 L 166.0 61.0 z M 176.0 166.0 L 176.0 171.0 L 181.0 171.0 L 181.0 166.0 z M 181.0 31.0 L 181.0 36.0 L 186.0 36.0 L 186.0 31.0 z M 51.0 126.0 L 51.0 131.0 L 56.0 131.0 L 56.0 126.0 z M 131.0 206.0 L 131.0 211.0 L 136.0 211.0 L 136.0 206.0 z M 126.0 46.0 L 126.0 51.0 L 131.0 51.0 L 131.0 46.0 z M 66.0 171.0 L 66.0 176.0 L 71.0 176.0 L 71.0 171.0 z M 186.0 206.0 L 186.0 211.0 L 191.0 211.0 L 191.0 206.0 z M 206.0 211.0 L 206.0 216.0 L 211.0 216.0 L 211.0 211.0 z M 196.0 131.0 L 196.0 136.0 L 201.0 136.0 L 201.0 131.0 z M 146.0 156.0 L 146.0 161.0 L 151.0 161.0 L 151.0 156.0 z M 201.0 126.0 L 201.0 131.0 L 206.0 131.0 L 206.0 126.0 z M 71.0 41.0 L 71.0 46.0 L 76.0 46.0 L 76.0 41.0 z M 96.0 206.0 L 96.0 211.0 L 101.0 211.0 L 101.0 206.0 z M 206.0 81.0 L 206.0 86.0 L 211.0 86.0 L 211.0 81.0 z M 196.0 101.0 L 196.0 106.0 L 201.0 106.0 L 201.0 101.0 z M 101.0 151.0 L 101.0 156.0 L 106.0 156.0 L 106.0 151.0 z M 211.0 96.0 L 211.0 101.0 L 216.0 101.0 L 216.0 96.0 z M 81.0 151.0 L 81.0 156.0 L 86.0 156.0 L 86.0 151.0 z M 106.0 176.0 L 106.0 181.0 L 111.0 181.0 L 111.0 176.0 z M 31.0 181.0 L 31.0 186.0 L 36.0 186.0 L 36.0 181.0 z M 151.0 86.0 L 151.0 91.0 L 156.0 91.0 L 156.0 86.0 z M 101.0 41.0 L 101.0 46.0 L 106.0 46.0 L 106.0 41.0 z M 166.0 141.0 L 166.0 146.0 L 171.0 146.0 L 171.0 141.0 z M 171.0 116.0 L 171.0 121.0 L 176.0 121.0 L 176.0 116.0 z M 41.0 171.0 L 41.0 176.0 L 46.0 176.0 L 46.0 171.0 z M 176.0 131.0 L 176.0 136.0 L 181.0 136.0 L 181.0 131.0 z M 181.0 86.0 L 181.0 91.0 L 186.0 91.0 L 186.0 86.0 z M 171.0 106.0 L 171.0 111.0 L 176.0 111.0 L 176.0 106.0 z M 56.0 166.0 L 56.0 171.0 L 61.0 171.0 L 61.0 166.0 z M 176.0 101.0 L 176.0 106.0 L 181.0 106.0 L 181.0 101.0 z M 166.0 201.0 L 166.0 206.0 L 171.0 206.0 L 171.0 201.0 z M 111.0 96.0 L 111.0 101.0 L 116.0 101.0 L 116.0 96.0 z M 61.0 111.0 L 61.0 116.0 L 66.0 116.0 L 66.0 111.0 z M 136.0 151.0 L 136.0 156.0 L 141.0 156.0 L 141.0 151.0 z M 51.0 191.0 L 51.0 196.0 L 56.0 196.0 L 56.0 191.0 z M 66.0 136.0 L 66.0 141.0 L 71.0 141.0 L 71.0 136.0 z M 131.0 46.0 L 131.0 51.0 L 136.0 51.0 L 136.0 46.0 z M 121.0 106.0 L 121.0 111.0 L 126.0 111.0 L 126.0 106.0 z M 146.0 141.0 L 146.0 146.0 L 151.0 146.0 L 151.0 141.0 z M 136.0 41.0 L 136.0 46.0 L 141.0 46.0 L 141.0 41.0 z M 121.0 211.0 L 121.0 216.0 L 126.0 216.0 L 126.0 211.0 z M 191.0 61.0 L 191.0 66.0 L 196.0 66.0 L 196.0 61.0 z M 141.0 76.0 L 141.0 81.0 L 146.0 81.0 L 146.0 76.0 z M 146.0 91.0 L 146.0 96.0 L 151.0 96.0 L 151.0 91.0 z M 81.0 46.0 L 81.0 51.0 L 86.0 51.0 L 86.0 46.0 z M 201.0 51.0 L 201.0 56.0 L 206.0 56.0 L 206.0 51.0 z M 206.0 156.0 L 206.0 161.0 L 211.0 161.0 L 211.0 156.0 z M 31.0 136.0 L 31.0 141.0 L 36.0 141.0 L 36.0 136.0 z M 151.0 121.0 L 151.0 126.0 L 156.0 126.0 L 156.0 121.0 z M 91.0 96.0 L 91.0 101.0 L 96.0 101.0 L 96.0 96.0 z M 211.0 121.0 L 211.0 126.0 L 216.0 126.0 L 216.0 121.0 z M 36.0 111.0 L 36.0 116.0 L 41.0 116.0 L 41.0 111.0 z M 106.0 31.0 L 106.0 36.0 L 111.0 36.0 L 111.0 31.0 z M 31.0 86.0 L 31.0 91.0 L 36.0 91.0 L 36.0 86.0 z M 46.0 61.0 L 46.0 66.0 L 51.0 66.0 L 51.0 61.0 z M 71.0 211.0 L 71.0 216.0 L 76.0 216.0 L 76.0 211.0 z M 171.0 61.0 L 171.0 66.0 L 176.0 66.0 L 176.0 61.0 z M 31.0 196.0 L 31.0 201.0 L 36.0 201.0 L 36.0 196.0 z M 191.0 196.0 L 191.0 201.0 L 196.0 201.0 L 196.0 196.0 z M 111.0 51.0 L 111.0 56.0 L 116.0 56.0 L 116.0 51.0 z M 181.0 131.0 L 181.0 136.0 L 186.0 136.0 L 186.0 131.0 z M 181.0 196.0 L 181.0 201.0 L 186.0 201.0 L 186.0 196.0 z M 186.0 116.0 L 186.0 121.0 L 191.0 121.0 L 191.0 116.0 z M 131.0 81.0 L 131.0 86.0 L 136.0 86.0 L 136.0 81.0 z M 121.0 61.0 L 121.0 66.0 L 126.0 66.0 L 126.0 61.0 z M 81.0 191.0 L 81.0 196.0 L 86.0 196.0 L 86.0 191.0 z M 191.0 176.0 L 191.0 181.0 L 196.0 181.0 L 196.0 176.0 z M 141.0 31.0 L 141.0 36.0 L 146.0 36.0 L 146.0 31.0 z M 76.0 96.0 L 76.0 101.0 L 81.0 101.0 L 81.0 96.0 z M 196.0 151.0 L 196.0 156.0 L 201.0 156.0 L 201.0 151.0 z M 81.0 81.0 L 81.0 86.0 L 86.0 86.0 L 86.0 81.0 z M 206.0 181.0 L 206.0 186.0 L 211.0 186.0 L 211.0 181.0 z M 76.0 146.0 L 76.0 151.0 L 81.0 151.0 L 81.0 146.0 z M 101.0 91.0 L 101.0 96.0 L 106.0 96.0 L 106.0 91.0 z M 211.0 156.0 L 211.0 161.0 L 216.0 161.0 L 216.0 156.0 z M 161.0 126.0 L 161.0 131.0 L 166.0 131.0 L 166.0 126.0 z M 31.0 41.0 L 31.0 46.0 L 36.0 46.0 L 36.0 41.0 z M 126.0 206.0 L 126.0 211.0 L 131.0 211.0 L 131.0 206.0 z M 46.0 106.0 L 46.0 111.0 L 51.0 111.0 L 51.0 106.0 z M 166.0 161.0 L 166.0 166.0 L 171.0 166.0 L 171.0 161.0 z M 171.0 176.0 L 171.0 181.0 L 176.0 181.0 L 176.0 176.0 z M 56.0 96.0 L 56.0 101.0 L 61.0 101.0 L 61.0 96.0 z M 46.0 136.0 L 46.0 141.0 L 51.0 141.0 L 51.0 136.0 z M 156.0 191.0 L 156.0 196.0 L 161.0 196.0 L 161.0 191.0 z M 61.0 41.0 L 61.0 46.0 L 66.0 46.0 L 66.0 41.0 z M 41.0 201.0 L 41.0 206.0 L 46.0 206.0 L 46.0 201.0 z M 56.0 146.0 L 56.0 151.0 L 61.0 151.0 L 61.0 146.0 z M 131.0 116.0 L 131.0 121.0 L 136.0 121.0 L 136.0 116.0 z M 121.0 36.0 L 121.0 41.0 L 126.0 41.0 L 126.0 36.0 z M 61.0 211.0 L 61.0 216.0 L 66.0 216.0 L 66.0 211.0 z M 136.0 131.0 L 136.0 136.0 L 141.0 136.0 L 141.0 131.0 z M 141.0 166.0 L 141.0 171.0 L 146.0 171.0 L 146.0 166.0 z M 196.0 116.0 L 196.0 121.0 L 201.0 121.0 L 201.0 116.0 z M 146.0 41.0 L 146.0 46.0 L 151.0 46.0 L 151.0 41.0 z M 71.0 176.0 L 71.0 181.0 L 76.0 181.0 L 76.0 176.0 z M 191.0 81.0 L 191.0 86.0 L 196.0 86.0 L 196.0 81.0 z M 76.0 151.0 L 76.0 156.0 L 81.0 156.0 L 81.0 151.0 z M 101.0 146.0 L 101.0 151.0 L 106.0 151.0 L 106.0 146.0 z M 91.0 46.0 L 91.0 51.0 L 96.0 51.0 L 96.0 46.0 z M 211.0 31.0 L 211.0 36.0 L 216.0 36.0 L 216.0 31.0 z M 81.0 186.0 L 81.0 191.0 L 86.0 191.0 L 86.0 186.0 z M 141.0 206.0 L 141.0 211.0 L 146.0 211.0 L 146.0 206.0 z M 31.0 156.0 L 31.0 161.0 L 36.0 161.0 L 36.0 156.0 z M 151.0 61.0 L 151.0 66.0 L 156.0 66.0 L 156.0 61.0 z M 156.0 66.0 L 156.0 71.0 L 161.0 71.0 L 161.0 66.0 z M 96.0 171.0 L 96.0 176.0 L 101.0 176.0 L 101.0 171.0 z M 171.0 131.0 L 171.0 136.0 L 176.0 136.0 L 176.0 131.0 z M 41.0 46.0 L 41.0 51.0 L 46.0 51.0 L 46.0 46.0 z M 176.0 156.0 L 176.0 161.0 L 181.0 161.0 L 181.0 156.0 z M 166.0 76.0 L 166.0 81.0 L 171.0 81.0 L 171.0 76.0 z M 61.0 56.0 L 61.0 61.0 L 66.0 61.0 L 66.0 56.0 z M 181.0 61.0 L 181.0 66.0 L 186.0 66.0 L 186.0 61.0 z M 126.0 186.0 L 126.0 191.0 L 131.0 191.0 L 131.0 186.0 z M 46.0 191.0 L 46.0 196.0 L 51.0 196.0 L 51.0 191.0 z M 181.0 191.0 L 181.0 196.0 L 186.0 196.0 L 186.0 191.0 z M 61.0 186.0 L 61.0 191.0 L 66.0 191.0 L 66.0 186.0 z M 141.0 121.0 L 141.0 126.0 L 146.0 126.0 L 146.0 121.0 z M 131.0 61.0 L 131.0 66.0 L 136.0 66.0 L 136.0 61.0 z M 136.0 66.0 L 136.0 71.0 L 141.0 71.0 L 141.0 66.0 z M 211.0 196.0 L 211.0 201.0 L 216.0 201.0 L 216.0 196.0 z M 76.0 36.0 L 76.0 41.0 L 81.0 41.0 L 81.0 36.0 z M 101.0 181.0 L 101.0 186.0 L 106.0 186.0 L 106.0 181.0 z M 211.0 106.0 L 211.0 111.0 L 216.0 111.0 L 216.0 106.0 z M 81.0 61.0 L 81.0 66.0 L 86.0 66.0 L 86.0 61.0 z M 201.0 86.0 L 201.0 91.0 L 206.0 91.0 L 206.0 86.0 z M 106.0 186.0 L 106.0 191.0 L 111.0 191.0 L 111.0 186.0 z M 151.0 96.0 L 151.0 101.0 L 156.0 101.0 L 156.0 96.0 z M 101.0 31.0 L 101.0 36.0 L 106.0 36.0 L 106.0 31.0 z M 91.0 111.0 L 91.0 116.0 L 96.0 116.0 L 96.0 111.0 z M 211.0 136.0 L 211.0 141.0 L 216.0 141.0 L 216.0 136.0 z M 156.0 71.0 L 156.0 76.0 L 161.0 76.0 L 161.0 71.0 z M 106.0 56.0 L 106.0 61.0 L 111.0 61.0 L 111.0 56.0 z M 161.0 106.0 L 161.0 111.0 L 166.0 111.0 L 166.0 106.0 z M 46.0 46.0 L 46.0 51.0 L 51.0 51.0 L 51.0 46.0 z M 166.0 101.0 L 166.0 106.0 L 171.0 106.0 L 171.0 101.0 z M 51.0 51.0 L 51.0 56.0 L 56.0 56.0 L 56.0 51.0 z M 171.0 76.0 L 171.0 81.0 L 176.0 81.0 L 176.0 76.0 z M 186.0 91.0 L 186.0 96.0 L 191.0 96.0 L 191.0 91.0 z M 56.0 156.0 L 56.0 161.0 L 61.0 161.0 L 61.0 156.0 z M 61.0 141.0 L 61.0 146.0 L 66.0 146.0 L 66.0 141.0 z M 181.0 126.0 L 181.0 131.0 L 186.0 131.0 L 186.0 126.0 z M 51.0 201.0 L 51.0 206.0 L 56.0 206.0 L 56.0 201.0 z M 116.0 101.0 L 116.0 106.0 L 121.0 106.0 L 121.0 101.0 z M 66.0 146.0 L 66.0 151.0 L 71.0 151.0 L 71.0 146.0 z M 121.0 96.0 L 121.0 101.0 L 126.0 101.0 L 126.0 96.0 z M 146.0 111.0 L 146.0 116.0 L 151.0 116.0 L 151.0 111.0 z M 136.0 31.0 L 136.0 36.0 L 141.0 36.0 L 141.0 31.0 z M 76.0 81.0 L 76.0 86.0 L 81.0 86.0 L 81.0 81.0 z M 146.0 101.0 L 146.0 106.0 L 151.0 106.0 L 151.0 101.0 z M 81.0 36.0 L 81.0 41.0 L 86.0 41.0 L 86.0 36.0 z M 201.0 41.0 L 201.0 46.0 L 206.0 46.0 L 206.0 41.0 z M 71.0 116.0 L 71.0 121.0 L 76.0 121.0 L 76.0 116.0 z M 206.0 166.0 L 206.0 171.0 L 211.0 171.0 L 211.0 166.0 z M 31.0 146.0 L 31.0 151.0 L 36.0 151.0 L 36.0 146.0 z M 101.0 86.0 L 101.0 91.0 L 106.0 91.0 L 106.0 86.0 z M 211.0 171.0 L 211.0 176.0 L 216.0 176.0 L 216.0 171.0 z M 106.0 41.0 L 106.0 46.0 L 111.0 46.0 L 111.0 41.0 z M 41.0 136.0 L 41.0 141.0 L 46.0 141.0 L 46.0 136.0 z M 31.0 96.0 L 31.0 101.0 L 36.0 101.0 L 36.0 96.0 z M 51.0 46.0 L 51.0 51.0 L 56.0 51.0 L 56.0 46.0 z M 171.0 31.0 L 171.0 36.0 L 176.0 36.0 L 176.0 31.0 z M 41.0 106.0 L 41.0 111.0 L 46.0 111.0 L 46.0 106.0 z M 31.0 206.0 L 31.0 211.0 L 36.0 211.0 L 36.0 206.0 z M 111.0 61.0 L 111.0 66.0 L 116.0 66.0 L 116.0 61.0 z M 181.0 161.0 L 181.0 166.0 L 186.0 166.0 L 186.0 161.0 z M 126.0 126.0 L 126.0 131.0 L 131.0 131.0 L 131.0 126.0 z M 121.0 51.0 L 121.0 56.0 L 126.0 56.0 L 126.0 51.0 z M 196.0 211.0 L 196.0 216.0 L 201.0 216.0 L 201.0 211.0 z M 111.0 171.0 L 111.0 176.0 L 116.0 176.0 L 116.0 171.0 z M 61.0 206.0 L 61.0 211.0 L 66.0 211.0 L 66.0 206.0 z M 136.0 76.0 L 136.0 81.0 L 141.0 81.0 L 141.0 76.0 z M 201.0 206.0 L 201.0 211.0 L 206.0 211.0 L 206.0 206.0 z M 116.0 156.0 L 116.0 161.0 L 121.0 161.0 L 121.0 156.0 z M 191.0 186.0 L 191.0 191.0 L 196.0 191.0 L 196.0 186.0 z M 141.0 61.0 L 141.0 66.0 L 146.0 66.0 L 146.0 61.0 z M 146.0 66.0 L 146.0 71.0 L 151.0 71.0 L 151.0 66.0 z M 81.0 71.0 L 81.0 76.0 L 86.0 76.0 L 86.0 71.0 z M 206.0 31.0 L 206.0 36.0 L 211.0 36.0 L 211.0 31.0 z M 91.0 61.0 L 91.0 66.0 L 96.0 66.0 L 96.0 61.0 z M 81.0 121.0 L 81.0 126.0 L 86.0 126.0 L 86.0 121.0 z M 106.0 86.0 L 106.0 91.0 L 111.0 91.0 L 111.0 86.0 z M 96.0 66.0 L 96.0 71.0 L 101.0 71.0 L 101.0 66.0 z M 31.0 51.0 L 31.0 56.0 L 36.0 56.0 L 36.0 51.0 z M 151.0 36.0 L 151.0 41.0 L 156.0 41.0 L 156.0 36.0 z M 91.0 171.0 L 91.0 176.0 L 96.0 176.0 L 96.0 171.0 z M 51.0 81.0 L 51.0 86.0 L 56.0 86.0 L 56.0 81.0 z M 171.0 186.0 L 171.0 191.0 L 176.0 191.0 L 176.0 186.0 z M 41.0 61.0 L 41.0 66.0 L 46.0 66.0 L 46.0 61.0 z M 56.0 86.0 L 56.0 91.0 L 61.0 91.0 L 61.0 86.0 z M 46.0 146.0 L 46.0 151.0 L 51.0 151.0 L 51.0 146.0 z M 61.0 31.0 L 61.0 36.0 L 66.0 36.0 L 66.0 31.0 z M 51.0 111.0 L 51.0 116.0 L 56.0 116.0 L 56.0 111.0 z M 126.0 151.0 L 126.0 156.0 L 131.0 156.0 L 131.0 151.0 z M 41.0 191.0 L 41.0 196.0 L 46.0 196.0 L 46.0 191.0 z M 56.0 136.0 L 56.0 141.0 L 61.0 141.0 L 61.0 136.0 z M 131.0 126.0 L 131.0 131.0 L 136.0 131.0 L 136.0 126.0 z M 61.0 161.0 L 61.0 166.0 L 66.0 166.0 L 66.0 161.0 z M 136.0 121.0 L 136.0 126.0 L 141.0 126.0 L 141.0 121.0 z M 116.0 121.0 L 116.0 126.0 L 121.0 126.0 L 121.0 121.0 z M 191.0 141.0 L 191.0 146.0 L 196.0 146.0 L 196.0 141.0 z M 86.0 211.0 L 86.0 216.0 L 91.0 216.0 L 91.0 211.0 z M 136.0 191.0 L 136.0 196.0 L 141.0 196.0 L 141.0 191.0 z M 196.0 146.0 L 196.0 151.0 L 201.0 151.0 L 201.0 146.0 z M 146.0 171.0 L 146.0 176.0 L 151.0 176.0 L 151.0 171.0 z M 211.0 211.0 L 211.0 216.0 L 216.0 216.0 L 216.0 211.0 z M 186.0 211.0 L 186.0 216.0 L 191.0 216.0 L 191.0 211.0 z M 201.0 131.0 L 201.0 136.0 L 206.0 136.0 L 206.0 131.0 z M 191.0 91.0 L 191.0 96.0 L 196.0 96.0 L 196.0 91.0 z M 76.0 181.0 L 76.0 186.0 L 81.0 186.0 L 81.0 181.0 z M 101.0 136.0 L 101.0 141.0 L 106.0 141.0 L 106.0 136.0 z M 211.0 41.0 L 211.0 46.0 L 216.0 46.0 L 216.0 41.0 z M 81.0 176.0 L 81.0 181.0 L 86.0 181.0 L 86.0 176.0 z M 96.0 31.0 L 96.0 36.0 L 101.0 36.0 L 101.0 31.0 z M 31.0 166.0 L 31.0 171.0 L 36.0 171.0 L 36.0 166.0 z M 151.0 71.0 L 151.0 76.0 L 156.0 76.0 L 156.0 71.0 z M 91.0 166.0 L 91.0 171.0 L 96.0 171.0 L 96.0 166.0 z M 166.0 136.0 L 166.0 141.0 L 171.0 141.0 L 171.0 136.0 z M 156.0 56.0 L 156.0 61.0 L 161.0 61.0 L 161.0 56.0 z M 101.0 196.0 L 101.0 201.0 L 106.0 201.0 L 106.0 196.0 z M 176.0 146.0 L 176.0 151.0 L 181.0 151.0 L 181.0 146.0 z M 166.0 86.0 L 166.0 91.0 L 171.0 91.0 L 171.0 86.0 z M 106.0 211.0 L 106.0 216.0 L 111.0 216.0 L 111.0 211.0 z M 181.0 51.0 L 181.0 56.0 L 186.0 56.0 L 186.0 51.0 z M 171.0 91.0 L 171.0 96.0 L 176.0 96.0 L 176.0 91.0 z M 56.0 181.0 L 56.0 186.0 L 61.0 186.0 L 61.0 181.0 z M 131.0 161.0 L 131.0 166.0 L 136.0 166.0 L 136.0 161.0 z M 46.0 201.0 L 46.0 206.0 L 51.0 206.0 L 51.0 201.0 z M 166.0 196.0 L 166.0 201.0 L 171.0 201.0 L 171.0 196.0 z M 66.0 151.0 L 66.0 156.0 L 71.0 156.0 L 71.0 151.0 z M 111.0 191.0 L 111.0 196.0 L 116.0 196.0 L 116.0 191.0 z M 136.0 56.0 L 136.0 61.0 L 141.0 61.0 L 141.0 56.0 z M 71.0 61.0 L 71.0 66.0 L 76.0 66.0 L 76.0 61.0 z M 191.0 46.0 L 191.0 51.0 L 196.0 51.0 L 196.0 46.0 z M 206.0 101.0 L 206.0 106.0 L 211.0 106.0 L 211.0 101.0 z M 76.0 66.0 L 76.0 71.0 L 81.0 71.0 L 81.0 66.0 z M 196.0 41.0 L 196.0 46.0 L 201.0 46.0 L 201.0 41.0 z M 81.0 51.0 L 81.0 56.0 L 86.0 56.0 L 86.0 51.0 z M 201.0 76.0 L 201.0 81.0 L 206.0 81.0 L 206.0 76.0 z M 86.0 76.0 L 86.0 81.0 L 91.0 81.0 L 91.0 76.0 z M 31.0 121.0 L 31.0 126.0 L 36.0 126.0 L 36.0 121.0 z M 151.0 106.0 L 151.0 111.0 L 156.0 111.0 L 156.0 106.0 z M 101.0 61.0 L 101.0 66.0 L 106.0 66.0 L 106.0 61.0 z M 211.0 146.0 L 211.0 151.0 L 216.0 151.0 L 216.0 146.0 z M 106.0 66.0 L 106.0 71.0 L 111.0 71.0 L 111.0 66.0 z M 96.0 126.0 L 96.0 131.0 L 101.0 131.0 L 101.0 126.0 z M 161.0 96.0 L 161.0 101.0 L 166.0 101.0 L 166.0 96.0 z M 31.0 71.0 L 31.0 76.0 L 36.0 76.0 L 36.0 71.0 z M 166.0 31.0 L 166.0 36.0 L 171.0 36.0 L 171.0 31.0 z M 51.0 61.0 L 51.0 66.0 L 56.0 66.0 L 56.0 61.0 z M 171.0 86.0 L 171.0 91.0 L 176.0 91.0 L 176.0 86.0 z M 186.0 101.0 L 186.0 106.0 L 191.0 106.0 L 191.0 101.0 z M 61.0 131.0 L 61.0 136.0 L 66.0 136.0 L 66.0 131.0 z M 126.0 91.0 L 126.0 96.0 L 131.0 96.0 L 131.0 91.0 z M 121.0 196.0 L 121.0 201.0 L 126.0 201.0 L 126.0 196.0 z M 116.0 91.0 L 116.0 96.0 L 121.0 96.0 L 121.0 91.0 z M 66.0 116.0 L 66.0 121.0 L 71.0 121.0 L 71.0 116.0 z M 146.0 121.0 L 146.0 126.0 L 151.0 126.0 L 151.0 121.0 z M 136.0 101.0 L 136.0 106.0 L 141.0 106.0 L 141.0 101.0 z M 136.0 201.0 L 136.0 206.0 L 141.0 206.0 L 141.0 201.0 z M 76.0 71.0 L 76.0 76.0 L 81.0 76.0 L 81.0 71.0 z M 196.0 166.0 L 196.0 171.0 L 201.0 171.0 L 201.0 166.0 z M 201.0 31.0 L 201.0 36.0 L 206.0 36.0 L 206.0 31.0 z M 71.0 126.0 L 71.0 131.0 L 76.0 131.0 L 76.0 126.0 z M 86.0 101.0 L 86.0 106.0 L 91.0 106.0 L 91.0 101.0 z M 206.0 176.0 L 206.0 181.0 L 211.0 181.0 L 211.0 176.0 z M 76.0 121.0 L 76.0 126.0 L 81.0 126.0 L 81.0 121.0 z M 101.0 76.0 L 101.0 81.0 L 106.0 81.0 L 106.0 76.0 z M 91.0 76.0 L 91.0 81.0 L 96.0 81.0 L 96.0 76.0 z M 211.0 181.0 L 211.0 186.0 L 216.0 186.0 L 216.0 181.0 z M 36.0 131.0 L 36.0 136.0 L 41.0 136.0 L 41.0 131.0 z M 161.0 131.0 L 161.0 136.0 L 166.0 136.0 L 166.0 131.0 z M 31.0 106.0 L 31.0 111.0 L 36.0 111.0 L 36.0 106.0 z M 51.0 96.0 L 51.0 101.0 L 56.0 101.0 L 56.0 96.0 z M 171.0 41.0 L 171.0 46.0 L 176.0 46.0 L 176.0 41.0 z M 56.0 31.0 L 56.0 36.0 L 61.0 36.0 L 61.0 31.0 z M 46.0 111.0 L 46.0 116.0 L 51.0 116.0 L 51.0 111.0 z M 156.0 206.0 L 156.0 211.0 L 161.0 211.0 L 161.0 206.0 z M 181.0 151.0 L 181.0 156.0 L 186.0 156.0 L 186.0 151.0 z M 66.0 101.0 L 66.0 106.0 L 71.0 106.0 L 71.0 101.0 z M 131.0 141.0 L 131.0 146.0 L 136.0 146.0 L 136.0 141.0 z M 121.0 41.0 L 121.0 46.0 L 126.0 46.0 L 126.0 41.0 z M 61.0 196.0 L 61.0 201.0 L 66.0 201.0 L 66.0 196.0 z M 136.0 146.0 L 136.0 151.0 L 141.0 151.0 L 141.0 146.0 z M 201.0 196.0 L 201.0 201.0 L 206.0 201.0 L 206.0 196.0 z M 116.0 186.0 L 116.0 191.0 L 121.0 191.0 L 121.0 186.0 z M 191.0 116.0 L 191.0 121.0 L 196.0 121.0 L 196.0 116.0 z M 121.0 171.0 L 121.0 176.0 L 126.0 176.0 L 126.0 171.0 z M 71.0 161.0 L 71.0 166.0 L 76.0 166.0 L 76.0 161.0 z M 76.0 166.0 L 76.0 171.0 L 81.0 171.0 L 81.0 166.0 z M 151.0 176.0 L 151.0 181.0 L 156.0 181.0 L 156.0 176.0 z M 211.0 56.0 L 211.0 61.0 L 216.0 61.0 L 216.0 56.0 z M 96.0 56.0 L 96.0 61.0 L 101.0 61.0 L 101.0 56.0 z M 86.0 176.0 L 86.0 181.0 L 91.0 181.0 L 91.0 176.0 z M 161.0 186.0 L 161.0 191.0 L 166.0 191.0 L 166.0 186.0 z M 31.0 61.0 L 31.0 66.0 L 36.0 66.0 L 36.0 61.0 z M 151.0 46.0 L 151.0 51.0 L 156.0 51.0 L 156.0 46.0 z M 116.0 211.0 L 116.0 216.0 L 121.0 216.0 L 121.0 211.0 z M 41.0 51.0 L 41.0 56.0 L 46.0 56.0 L 46.0 51.0 z M 176.0 171.0 L 176.0 176.0 L 181.0 176.0 L 181.0 171.0 z M 46.0 156.0 L 46.0 161.0 L 51.0 161.0 L 51.0 156.0 z M 61.0 61.0 L 61.0 66.0 L 66.0 66.0 L 66.0 61.0 z M 181.0 46.0 L 181.0 51.0 L 186.0 51.0 L 186.0 46.0 z M 51.0 121.0 L 51.0 126.0 L 56.0 126.0 L 56.0 121.0 z M 161.0 206.0 L 161.0 211.0 L 166.0 211.0 L 166.0 206.0 z M 186.0 161.0 L 186.0 166.0 L 191.0 166.0 L 191.0 161.0 z M 56.0 126.0 L 56.0 131.0 L 61.0 131.0 L 61.0 126.0 z M 131.0 176.0 L 131.0 181.0 L 136.0 181.0 L 136.0 176.0 z M 61.0 151.0 L 61.0 156.0 L 66.0 156.0 L 66.0 151.0 z M 136.0 111.0 L 136.0 116.0 L 141.0 116.0 L 141.0 111.0 z M 126.0 31.0 L 126.0 36.0 L 131.0 36.0 L 131.0 31.0 z M 121.0 206.0 L 121.0 211.0 L 126.0 211.0 L 126.0 206.0 z M 141.0 186.0 L 141.0 191.0 L 146.0 191.0 L 146.0 186.0 z M 196.0 136.0 L 196.0 141.0 L 201.0 141.0 L 201.0 136.0 z M 201.0 121.0 L 201.0 126.0 L 206.0 126.0 L 206.0 121.0 z M 71.0 36.0 L 71.0 41.0 L 76.0 41.0 L 76.0 36.0 z M 96.0 211.0 L 96.0 216.0 L 101.0 216.0 L 101.0 211.0 z M 211.0 91.0 L 211.0 96.0 L 216.0 96.0 L 216.0 91.0 z M 81.0 166.0 L 81.0 171.0 L 86.0 171.0 L 86.0 166.0 z M 201.0 91.0 L 201.0 96.0 L 206.0 96.0 L 206.0 91.0 z M 106.0 121.0 L 106.0 126.0 L 111.0 126.0 L 111.0 121.0 z M 206.0 116.0 L 206.0 121.0 L 211.0 121.0 L 211.0 116.0 z M 161.0 31.0 L 161.0 36.0 L 166.0 36.0 L 166.0 31.0 z M 46.0 181.0 L 46.0 186.0 L 51.0 186.0 L 51.0 181.0 z M 51.0 156.0 L 51.0 161.0 L 56.0 161.0 L 56.0 156.0 z M 171.0 101.0 L 171.0 106.0 L 176.0 106.0 L 176.0 101.0 z M 176.0 106.0 L 176.0 111.0 L 181.0 111.0 L 181.0 106.0 z M 46.0 211.0 L 46.0 216.0 L 51.0 216.0 L 51.0 211.0 z M 166.0 206.0 L 166.0 211.0 L 171.0 211.0 L 171.0 206.0 z M 111.0 91.0 L 111.0 96.0 L 116.0 96.0 L 116.0 91.0 z M 171.0 211.0 L 171.0 216.0 L 176.0 216.0 L 176.0 211.0 z M 116.0 76.0 L 116.0 81.0 L 121.0 81.0 L 121.0 76.0 z M 66.0 161.0 L 66.0 166.0 L 71.0 166.0 L 71.0 161.0 z M 141.0 141.0 L 141.0 146.0 L 146.0 146.0 L 146.0 141.0 z M 131.0 41.0 L 131.0 46.0 L 136.0 46.0 L 136.0 41.0 z M 111.0 201.0 L 111.0 206.0 L 116.0 206.0 L 116.0 201.0 z M 71.0 71.0 L 71.0 76.0 L 76.0 76.0 L 76.0 71.0 z M 141.0 71.0 L 141.0 76.0 L 146.0 76.0 L 146.0 71.0 z M 196.0 31.0 L 196.0 36.0 L 201.0 36.0 L 201.0 31.0 z M 211.0 86.0 L 211.0 91.0 L 216.0 91.0 L 216.0 86.0 z M 81.0 41.0 L 81.0 46.0 L 86.0 46.0 L 86.0 41.0 z M 106.0 166.0 L 106.0 171.0 L 111.0 171.0 L 111.0 166.0 z M 151.0 116.0 L 151.0 121.0 L 156.0 121.0 L 156.0 116.0 z M 211.0 116.0 L 211.0 121.0 L 216.0 121.0 L 216.0 116.0 z M 106.0 36.0 L 106.0 41.0 L 111.0 41.0 L 111.0 36.0 z M 41.0 141.0 L 41.0 146.0 L 46.0 146.0 L 46.0 141.0 z M 31.0 81.0 L 31.0 86.0 L 36.0 86.0 L 36.0 81.0 z M 166.0 41.0 L 166.0 46.0 L 171.0 46.0 L 171.0 41.0 z M 51.0 31.0 L 51.0 36.0 L 56.0 36.0 L 56.0 31.0 z M 31.0 191.0 L 31.0 196.0 L 36.0 196.0 L 36.0 191.0 z M 176.0 71.0 L 176.0 76.0 L 181.0 76.0 L 181.0 71.0 z M 111.0 46.0 L 111.0 51.0 L 116.0 51.0 L 116.0 46.0 z M 61.0 81.0 L 61.0 86.0 L 66.0 86.0 L 66.0 81.0 z M 181.0 146.0 L 181.0 151.0 L 186.0 151.0 L 186.0 146.0 z M 171.0 206.0 L 171.0 211.0 L 176.0 211.0 L 176.0 206.0 z M 116.0 41.0 L 116.0 46.0 L 121.0 46.0 L 121.0 41.0 z M 66.0 126.0 L 66.0 131.0 L 71.0 131.0 L 71.0 126.0 z M 131.0 76.0 L 131.0 81.0 L 136.0 81.0 L 136.0 76.0 z M 76.0 211.0 L 76.0 216.0 L 81.0 216.0 L 81.0 211.0 z M 111.0 156.0 L 111.0 161.0 L 116.0 161.0 L 116.0 156.0 z M 136.0 91.0 L 136.0 96.0 L 141.0 96.0 L 141.0 91.0 z M 81.0 206.0 L 81.0 211.0 L 86.0 211.0 L 86.0 206.0 z M 201.0 211.0 L 201.0 216.0 L 206.0 216.0 L 206.0 211.0 z M 71.0 106.0 L 71.0 111.0 L 76.0 111.0 L 76.0 106.0 z M 191.0 171.0 L 191.0 176.0 L 196.0 176.0 L 196.0 171.0 z M 141.0 46.0 L 141.0 51.0 L 146.0 51.0 L 146.0 46.0 z M 76.0 101.0 L 76.0 106.0 L 81.0 106.0 L 81.0 101.0 z M 201.0 181.0 L 201.0 186.0 L 206.0 186.0 L 206.0 181.0 z M 206.0 186.0 L 206.0 191.0 L 211.0 191.0 L 211.0 186.0 z M 76.0 111.0 L 76.0 116.0 L 81.0 116.0 L 81.0 111.0 z M 151.0 151.0 L 151.0 156.0 L 156.0 156.0 L 156.0 151.0 z M 91.0 86.0 L 91.0 91.0 L 96.0 91.0 L 96.0 86.0 z M 211.0 151.0 L 211.0 156.0 L 216.0 156.0 L 216.0 151.0 z M 41.0 116.0 L 41.0 121.0 L 46.0 121.0 L 46.0 116.0 z M 161.0 121.0 L 161.0 126.0 L 166.0 126.0 L 166.0 121.0 z M 31.0 36.0 L 31.0 41.0 L 36.0 41.0 L 36.0 36.0 z M 46.0 91.0 L 46.0 96.0 L 51.0 96.0 L 51.0 91.0 z M 166.0 166.0 L 166.0 171.0 L 171.0 171.0 L 171.0 166.0 z M 36.0 91.0 L 36.0 96.0 L 41.0 96.0 L 41.0 91.0 z M 171.0 171.0 L 171.0 176.0 L 176.0 176.0 L 176.0 171.0 z M 191.0 201.0 L 191.0 206.0 L 196.0 206.0 L 196.0 201.0 z M 56.0 101.0 L 56.0 106.0 L 61.0 106.0 L 61.0 101.0 z M 156.0 196.0 L 156.0 201.0 L 161.0 201.0 L 161.0 196.0 z M 181.0 181.0 L 181.0 186.0 L 186.0 186.0 L 186.0 181.0 z M 121.0 31.0 L 121.0 36.0 L 126.0 36.0 L 126.0 31.0 z M 111.0 111.0 L 111.0 116.0 L 116.0 116.0 L 116.0 111.0 z M 136.0 136.0 L 136.0 141.0 L 141.0 141.0 L 141.0 136.0 z M 116.0 176.0 L 116.0 181.0 L 121.0 181.0 L 121.0 176.0 z M 191.0 126.0 L 191.0 131.0 L 196.0 131.0 L 196.0 126.0 z M 141.0 161.0 L 141.0 166.0 L 146.0 166.0 L 146.0 161.0 z M 86.0 206.0 L 86.0 211.0 L 91.0 211.0 L 91.0 206.0 z M 121.0 161.0 L 121.0 166.0 L 126.0 166.0 L 126.0 161.0 z M 146.0 46.0 L 146.0 51.0 L 151.0 51.0 L 151.0 46.0 z M 91.0 211.0 L 91.0 216.0 L 96.0 216.0 L 96.0 211.0 z M 151.0 211.0 L 151.0 216.0 L 156.0 216.0 L 156.0 211.0 z M 96.0 46.0 L 96.0 51.0 L 101.0 51.0 L 101.0 46.0 z M 151.0 56.0 L 151.0 61.0 L 156.0 61.0 L 156.0 56.0 z M 126.0 201.0 L 126.0 206.0 L 131.0 206.0 L 131.0 201.0 z M 156.0 31.0 L 156.0 36.0 L 161.0 36.0 L 161.0 31.0 z M 41.0 41.0 L 41.0 46.0 L 46.0 46.0 L 46.0 41.0 z M 161.0 66.0 L 161.0 71.0 L 166.0 71.0 L 166.0 66.0 z M 46.0 166.0 L 46.0 171.0 L 51.0 171.0 L 51.0 166.0 z M 61.0 51.0 L 61.0 56.0 L 66.0 56.0 L 66.0 51.0 z M 181.0 36.0 L 181.0 41.0 L 186.0 41.0 L 186.0 36.0 z M 161.0 196.0 L 161.0 201.0 L 166.0 201.0 L 166.0 196.0 z M 56.0 116.0 L 56.0 121.0 L 61.0 121.0 L 61.0 116.0 z M 131.0 186.0 L 131.0 191.0 L 136.0 191.0 L 136.0 186.0 z M 46.0 196.0 L 46.0 201.0 L 51.0 201.0 L 51.0 196.0 z M 146.0 201.0 L 146.0 206.0 L 151.0 206.0 L 151.0 201.0 z M 61.0 181.0 L 61.0 186.0 L 66.0 186.0 L 66.0 181.0 z M 136.0 181.0 L 136.0 186.0 L 141.0 186.0 L 141.0 181.0 z M 126.0 41.0 L 126.0 46.0 L 131.0 46.0 L 131.0 41.0 z M 141.0 176.0 L 141.0 181.0 L 146.0 181.0 L 146.0 176.0 z M 121.0 136.0 L 121.0 141.0 L 126.0 141.0 L 126.0 136.0 z M 146.0 151.0 L 146.0 156.0 L 151.0 156.0 L 151.0 151.0 z M 71.0 46.0 L 71.0 51.0 L 76.0 51.0 L 76.0 46.0 z M 191.0 31.0 L 191.0 36.0 L 196.0 36.0 L 196.0 31.0 z M 96.0 201.0 L 96.0 206.0 L 101.0 206.0 L 101.0 201.0 z M 206.0 96.0 L 206.0 101.0 L 211.0 101.0 L 211.0 96.0 z M 76.0 41.0 L 76.0 46.0 L 81.0 46.0 L 81.0 41.0 z M 101.0 156.0 L 101.0 161.0 L 106.0 161.0 L 106.0 156.0 z M 86.0 131.0 L 86.0 136.0 L 91.0 136.0 L 91.0 131.0 z M 31.0 186.0 L 31.0 191.0 L 36.0 191.0 L 36.0 186.0 z M 211.0 131.0 L 211.0 136.0 L 216.0 136.0 L 216.0 131.0 z M 36.0 181.0 L 36.0 186.0 L 41.0 186.0 L 41.0 181.0 z M 46.0 31.0 L 46.0 36.0 L 51.0 36.0 L 51.0 31.0 z M 166.0 106.0 L 166.0 111.0 L 171.0 111.0 L 171.0 106.0 z M 106.0 191.0 L 106.0 196.0 L 111.0 196.0 L 111.0 191.0 z M 181.0 71.0 L 181.0 76.0 L 186.0 76.0 L 186.0 71.0 z M 51.0 166.0 L 51.0 171.0 L 56.0 171.0 L 56.0 166.0 z M 171.0 71.0 L 171.0 76.0 L 176.0 76.0 L 176.0 71.0 z M 191.0 191.0 L 191.0 196.0 L 196.0 196.0 L 196.0 191.0 z M 176.0 96.0 L 176.0 101.0 L 181.0 101.0 L 181.0 96.0 z M 111.0 101.0 L 111.0 106.0 L 116.0 106.0 L 116.0 101.0 z M 51.0 196.0 L 51.0 201.0 L 56.0 201.0 L 56.0 196.0 z M 116.0 106.0 L 116.0 111.0 L 121.0 111.0 L 121.0 106.0 z M 66.0 131.0 L 66.0 136.0 L 71.0 136.0 L 71.0 131.0 z M 141.0 131.0 L 141.0 136.0 L 146.0 136.0 L 146.0 131.0 z M 56.0 211.0 L 56.0 216.0 L 61.0 216.0 L 61.0 211.0 z M 71.0 81.0 L 71.0 86.0 L 76.0 86.0 L 76.0 81.0 z M 76.0 201.0 L 76.0 206.0 L 81.0 206.0 L 81.0 201.0 z M 76.0 86.0 L 76.0 91.0 L 81.0 91.0 L 81.0 86.0 z M 196.0 61.0 L 196.0 66.0 L 201.0 66.0 L 201.0 61.0 z M 146.0 106.0 L 146.0 111.0 L 151.0 111.0 L 151.0 106.0 z M 81.0 31.0 L 81.0 36.0 L 86.0 36.0 L 86.0 31.0 z M 71.0 111.0 L 71.0 116.0 L 76.0 116.0 L 76.0 111.0 z M 86.0 96.0 L 86.0 101.0 L 91.0 101.0 L 91.0 96.0 z M 206.0 151.0 L 206.0 156.0 L 211.0 156.0 L 211.0 151.0 z M 31.0 141.0 L 31.0 146.0 L 36.0 146.0 L 36.0 141.0 z M 211.0 126.0 L 211.0 131.0 L 216.0 131.0 L 216.0 126.0 z M 36.0 146.0 L 36.0 151.0 L 41.0 151.0 L 41.0 146.0 z M 156.0 121.0 L 156.0 126.0 L 161.0 126.0 L 161.0 121.0 z M 106.0 46.0 L 106.0 51.0 L 111.0 51.0 L 111.0 46.0 z M 166.0 51.0 L 166.0 56.0 L 171.0 56.0 L 171.0 51.0 z M 51.0 41.0 L 51.0 46.0 L 56.0 46.0 L 56.0 41.0 z M 41.0 101.0 L 41.0 106.0 L 46.0 106.0 L 46.0 101.0 z M 31.0 201.0 L 31.0 206.0 L 36.0 206.0 L 36.0 201.0 z M 186.0 81.0 L 186.0 86.0 L 191.0 86.0 L 191.0 81.0 z M 61.0 71.0 L 61.0 76.0 L 66.0 76.0 L 66.0 71.0 z M 181.0 136.0 L 181.0 141.0 L 186.0 141.0 L 186.0 136.0 z M 116.0 31.0 L 116.0 36.0 L 121.0 36.0 L 121.0 31.0 z M 186.0 111.0 L 186.0 116.0 L 191.0 116.0 L 191.0 111.0 z M 176.0 191.0 L 176.0 196.0 L 181.0 196.0 L 181.0 191.0 z M 61.0 201.0 L 61.0 206.0 L 66.0 206.0 L 66.0 201.0 z M 116.0 161.0 L 116.0 166.0 L 121.0 166.0 L 121.0 161.0 z M 191.0 181.0 L 191.0 186.0 L 196.0 186.0 L 196.0 181.0 z M 141.0 36.0 L 141.0 41.0 L 146.0 41.0 L 146.0 36.0 z M 76.0 91.0 L 76.0 96.0 L 81.0 96.0 L 81.0 91.0 z M 71.0 146.0 L 71.0 151.0 L 76.0 151.0 L 76.0 146.0 z M 86.0 41.0 L 86.0 46.0 L 91.0 46.0 L 91.0 41.0 z M 76.0 141.0 L 76.0 146.0 L 81.0 146.0 L 81.0 141.0 z M 211.0 161.0 L 211.0 166.0 L 216.0 166.0 L 216.0 161.0 z M 81.0 136.0 L 81.0 141.0 L 86.0 141.0 L 86.0 136.0 z M 156.0 166.0 L 156.0 171.0 L 161.0 171.0 L 161.0 166.0 z M 96.0 71.0 L 96.0 76.0 L 101.0 76.0 L 101.0 71.0 z M 161.0 111.0 L 161.0 116.0 L 166.0 116.0 L 166.0 111.0 z M 31.0 46.0 L 31.0 51.0 L 36.0 51.0 L 36.0 46.0 z M 151.0 31.0 L 151.0 36.0 L 156.0 36.0 L 156.0 31.0 z M 46.0 101.0 L 46.0 106.0 L 51.0 106.0 L 51.0 101.0 z M 51.0 76.0 L 51.0 81.0 L 56.0 81.0 L 56.0 76.0 z M 171.0 181.0 L 171.0 186.0 L 176.0 186.0 L 176.0 181.0 z M 41.0 76.0 L 41.0 81.0 L 46.0 81.0 L 46.0 76.0 z M 46.0 131.0 L 46.0 136.0 L 51.0 136.0 L 51.0 131.0 z M 36.0 211.0 L 36.0 216.0 L 41.0 216.0 L 41.0 211.0 z M 61.0 46.0 L 61.0 51.0 L 66.0 51.0 L 66.0 46.0 z M 181.0 171.0 L 181.0 176.0 L 186.0 176.0 L 186.0 171.0 z M 161.0 211.0 L 161.0 216.0 L 166.0 216.0 L 166.0 211.0 z M 66.0 81.0 L 66.0 86.0 L 71.0 86.0 L 71.0 81.0 z M 186.0 156.0 L 186.0 161.0 L 191.0 161.0 L 191.0 156.0 z M 131.0 121.0 L 131.0 126.0 L 136.0 126.0 L 136.0 121.0 z M 191.0 136.0 L 191.0 141.0 L 196.0 141.0 L 196.0 136.0 z M 121.0 151.0 L 121.0 156.0 L 126.0 156.0 L 126.0 151.0 z M 201.0 146.0 L 201.0 151.0 L 206.0 151.0 L 206.0 146.0 z M 206.0 61.0 L 206.0 66.0 L 211.0 66.0 L 211.0 61.0 z M 76.0 186.0 L 76.0 191.0 L 81.0 191.0 L 81.0 186.0 z M 101.0 131.0 L 101.0 136.0 L 106.0 136.0 L 106.0 131.0 z M 211.0 36.0 L 211.0 41.0 L 216.0 41.0 L 216.0 36.0 z M 81.0 171.0 L 81.0 176.0 L 86.0 176.0 L 86.0 171.0 z M 156.0 171.0 L 156.0 176.0 L 161.0 176.0 L 161.0 171.0 z M 96.0 36.0 L 96.0 41.0 L 101.0 41.0 L 101.0 36.0 z M 31.0 161.0 L 31.0 166.0 L 36.0 166.0 L 36.0 161.0 z M 96.0 166.0 L 96.0 171.0 L 101.0 171.0 L 101.0 166.0 z M 41.0 31.0 L 41.0 36.0 L 46.0 36.0 L 46.0 31.0 z M 161.0 56.0 L 161.0 61.0 L 166.0 61.0 L 166.0 56.0 z M 101.0 191.0 L 101.0 196.0 L 106.0 196.0 L 106.0 191.0 z M 176.0 151.0 L 176.0 156.0 L 181.0 156.0 L 181.0 151.0 z M 166.0 71.0 L 166.0 76.0 L 171.0 76.0 L 171.0 71.0 z M 51.0 181.0 L 51.0 186.0 L 56.0 186.0 L 56.0 181.0 z M 126.0 181.0 L 126.0 186.0 L 131.0 186.0 L 131.0 181.0 z" id="qr-path" style="fill:#000000;fill-opacity:1;fill-rule:nonzero;stroke:none" /><path d="M 10 10 h 227.0 v 1.0 h -227.0 z M 10 236.0 h 10 v 1.0 h -10 z M 120 236.0 h 117.0 v 1.0 h -117.0 z M 10 11.0 v 225 h 1.0 v -225 z M 236.0 11.0 v 225 h 1.0 v -225 z" id="qrplatba-border" style="fill:#000000;fill-opacity:1;fill-rule:nonzero;stroke:none" /><text id="qrplatba-text" style="font-size:17.215509415px;font-weight:bold;fill:#000000;font-family:Arial;" x="31.0" y="249.5">QR platba</text></svg>